<svg xmlns="http://www.w3.org/2000/svg" version="1.1" id="Layer_1" x="0" y="0" xml:space="preserve" viewBox="66.31 215.02 477.39 165.07"><style id="style2">.st0{fill:#2d2d2d}.st1{fill:#d8252c}.st2{fill:#d7252c}.st3{fill:#d6252c}.st4{fill:#d5252c}.st5{fill:#d4252c}.st6{fill:#d3252c}.st7{fill:#d2252c}.st8{fill:#d1252c}.st9{fill:#d0252c}.st10{fill:#cf252c}.st11{fill:#ce252c}.st12{fill:#cd252c}.st13{fill:#cc252c}.st14{fill:#cb252c}.st15{fill:#ca252c}.st16{fill:#c9252c}.st17{fill:#c8252c}.st18{fill:#c7252c}.st19{fill:#c6252c}.st20{fill:#c5252c}.st21{fill:#c4252c}.st22{fill:#c3252c}.st23{fill:#c2252c}.st24{fill:#c1252c}.st25{fill:#c0252c}.st26{fill:#bf252c}.st27{fill:#be252c}.st28{fill:#bd252c}.st29{fill:#bc252c}.st30{fill:#bb252c}.st31{fill:#ba252c}.st32{fill:#b9252c}.st33{fill:#b8252c}.st34{fill:#b7252c}.st35{fill:#b6252c}.st36{fill:#b5252c}.st37{fill:#b4252c}.st38{fill:#b3252c}.st39{fill:#b2252c}.st40{fill:#b1252c}.st41{fill:#b0252c}.st42{fill:#af252c}.st43{fill:#ae252c}.st44{fill:#ad252c}.st45{fill:#ac252c}.st46{fill:#ab252c}.st47{fill:#aa252c}.st48{fill:#a9252c}.st49{fill:#a8252c}.st50{fill:#a7252c}.st51{fill:#a6252c}.st52{fill:#a5252c}.st53{fill:#a4252c}.st54{fill:#a3252c}.st55{fill:#a2252c}.st56{fill:#a1252c}.st57{fill:#a0252c}.st58{fill:#9f252c}.st59{fill:#9e252c}.st60{fill:#fff}</style><path class="st0" d="M278.938 269.926h24.158v77.061h-24.158zm44.468-.001h24.055v39.842c0 4.538-.55 19.804 12.58 19.804 3.987 0 12.07-3.99 12.07-14.278v-45.368h24.015v54.035c0 7.675-.145 9.764.58 23.026h-20.693c0-1.148-.712-5.41-1.129-11.23-5.323 7.234-11.505 13.059-24.923 13.059-27.734 0-26.555-34.024-26.555-28.613zm137.318 17.898v-17.898h-17.126v-20.874l-23.65 6.706v14.168H409.82v17.898h10.128v33.336c0 28.935 23.585 27.659 26.235 27.659 2.644 0 7.418 0 13.814-1.832V328.3c-16.508 3.943-16.399-6.323-16.399-12.007v-28.471h17.126zm49.004-19.676c-17.396 0-38.907 12.794-38.907 41.036 0 38.493 34.757 39.635 42.423 39.635 7.676 0 15.238-.813 26.614-5.057l-3.428-16.257c-30.532 9.26-41.463-1.697-42.595-11.342h49.141c6.142-46.234-28.785-48.015-33.248-48.015m-16.132 31.673c.217-6.26 4.715-15.617 14.95-15.617 11.542 0 13.048 11.787 13.405 15.617z" id="path4"/><circle class="st0" cx="290.729" cy="245.488" r="13.357" id="circle6"/><circle class="st1" cx="148.84" cy="297.549" r="82.534" id="circle8"/><path class="st1" d="M122.876 348.573c-6.516 0-13.2-1.104-19.293-3.487-3.656-1.43-7.139-3.796-8.895-7.307-2.785-5.568.481-10.315 4.771-13.749 12.81-10.254 25.96-21.054 35.357-34.664a171.943 171.943 0 0 0 11.19-18.621c3.092-5.969 6.285-11.507 11.891-15.519a31.089 31.089 0 0 1 18.362-5.773c3.61.037 7.217.692 10.6 1.957 13.267 4.979 24.836 18.539 17.55 41.678-7.139 22.698-29.164 42.415-57.48 51.452-8.434 2.692-16.557 4.033-24.053 4.033z" id="path10"/><path class="st2" d="M157.836 255.82c3.73-2.696 7.984-4.554 12.467-5.409a30.467 30.467 0 0 1 5.782-.54c2.035.005 4.073.21 6.07.616 1.551.313 3.072.746 4.536 1.297 13.216 4.994 24.585 18.475 17.34 41.368-7.134 22.518-29.056 42.1-57.064 51.039-8.373 2.671-16.436 4.004-23.876 4.006a55.13 55.13 0 0 1-1.52-.02c-5.987-.157-12.06-1.258-17.632-3.437-1.43-.56-2.835-1.258-4.102-2.124a15.924 15.924 0 0 1-2.513-2.112 12.064 12.064 0 0 1-2.115-2.997c-2.71-5.495.53-10.184 4.775-13.583 12.68-10.152 25.687-20.848 35-34.313 4.08-5.9 7.786-12.057 11.09-18.422 3.065-5.905 6.238-11.375 11.762-15.369z" id="path12"/><path class="st3" d="M157.776 256.414c3.711-2.712 7.911-4.63 12.37-5.53a29.924 29.924 0 0 1 5.766-.595 30.217 30.217 0 0 1 6.072.58c1.56.308 3.084.738 4.54 1.289 13.163 5.01 24.333 18.41 17.127 41.06-7.127 22.336-28.945 41.782-56.646 50.623-8.311 2.652-16.314 3.977-23.7 3.98-.501 0-1.004-.006-1.507-.02-5.95-.154-11.977-1.246-17.502-3.407-1.418-.555-2.81-1.241-4.05-2.103a15.747 15.747 0 0 1-2.458-2.096 11.747 11.747 0 0 1-2.059-2.96c-2.633-5.423.58-10.053 4.78-13.417 12.55-10.05 25.416-20.642 34.642-33.963a169.132 169.132 0 0 0 10.992-18.223c3.038-5.84 6.19-11.241 11.633-15.218z" id="path14"/><path class="st4" d="M157.715 257.008c3.694-2.728 7.839-4.705 12.276-5.653a29.564 29.564 0 0 1 11.82-.104c1.571.302 3.099.73 4.545 1.28 13.11 5.027 24.083 18.347 16.917 40.751-7.123 22.156-28.837 41.467-56.23 50.21-8.25 2.632-16.193 3.948-23.522 3.953-.498 0-.997-.006-1.497-.019-5.912-.152-11.892-1.235-17.372-3.379-1.405-.55-2.785-1.223-3.999-2.081a15.687 15.687 0 0 1-2.402-2.079 11.49 11.49 0 0 1-2.001-2.925c-2.557-5.349.63-9.922 4.784-13.25 12.42-9.948 25.144-20.436 34.284-33.612a167.727 167.727 0 0 0 10.893-18.024c3.012-5.775 6.141-11.11 11.504-15.068z" id="path16"/><path class="st5" d="M157.654 257.602c3.677-2.743 7.767-4.78 12.18-5.775a28.937 28.937 0 0 1 11.805-.194 26.33 26.33 0 0 1 4.55 1.273c13.058 5.041 23.83 18.282 16.705 40.441-7.117 21.975-28.727 41.15-55.812 49.795-8.19 2.613-16.072 3.92-23.346 3.927-.495 0-.99-.006-1.486-.019-5.874-.149-11.808-1.223-17.242-3.35-1.392-.544-2.76-1.205-3.947-2.06a15.633 15.633 0 0 1-2.347-2.061 11.237 11.237 0 0 1-1.943-2.889c-2.481-5.276.678-9.79 4.788-13.084 12.29-9.846 24.873-20.23 33.926-33.262a166.323 166.323 0 0 0 10.794-17.825c2.985-5.71 6.093-10.977 11.375-14.917z" id="path18"/><path class="st6" d="M157.593 258.196c3.66-2.76 7.695-4.856 12.085-5.897a28.37 28.37 0 0 1 11.79-.284c1.59.295 3.125.714 4.553 1.264 13.006 5.058 23.58 18.219 16.494 40.133-7.11 21.794-28.618 40.834-55.395 49.38-8.128 2.594-15.95 3.892-23.17 3.9-.49.001-.982-.005-1.474-.017-5.836-.147-11.723-1.212-17.112-3.32-1.379-.54-2.734-1.19-3.895-2.04a15.579 15.579 0 0 1-2.291-2.045 11.074 11.074 0 0 1-1.887-2.852c-2.391-5.21.728-9.66 4.793-12.918 12.16-9.745 24.601-20.025 33.568-32.911a164.923 164.923 0 0 0 10.695-17.626c2.959-5.645 6.045-10.846 11.246-14.767z" id="path20"/><path class="st7" d="M157.533 258.79c3.642-2.776 7.621-4.931 11.989-6.02a27.878 27.878 0 0 1 11.773-.373c1.6.29 3.14.706 4.558 1.256 12.954 5.074 23.33 18.154 16.283 39.824-7.105 21.613-28.508 40.518-54.978 48.966-8.067 2.574-15.829 3.863-22.992 3.873-.487.001-.975-.005-1.463-.017-5.798-.144-11.64-1.2-16.983-3.29-1.366-.535-2.708-1.172-3.843-2.02a15.534 15.534 0 0 1-2.236-2.027 10.843 10.843 0 0 1-1.829-2.816c-2.313-5.138.777-9.529 4.797-12.751 12.03-9.644 24.33-19.82 33.21-32.561a163.523 163.523 0 0 0 10.597-17.427c2.931-5.581 5.996-10.716 11.117-14.617z" id="path22"/><path class="st8" d="M157.472 259.384c3.625-2.792 7.55-5.006 11.894-6.142a27.399 27.399 0 0 1 11.757-.463c1.61.286 3.153.698 4.563 1.248 12.901 5.09 23.077 18.09 16.071 39.515-7.1 21.432-28.399 40.201-54.56 48.551-8.006 2.554-15.709 3.835-22.816 3.847-.484.001-.968-.004-1.452-.016-5.76-.141-11.555-1.19-16.853-3.262-1.353-.53-2.683-1.154-3.79-1.998a15.492 15.492 0 0 1-2.182-2.01 10.613 10.613 0 0 1-1.771-2.78c-2.234-5.066.826-9.398 4.801-12.585 11.9-9.542 24.058-19.614 32.853-32.211a162.118 162.118 0 0 0 10.497-17.228c2.905-5.516 5.947-10.585 10.988-14.466z" id="path24"/><path class="st9" d="M157.411 259.977c3.608-2.808 7.477-5.08 11.799-6.263 1.83-.5 3.731-.814 5.663-.918a27.107 27.107 0 0 1 6.078.365c1.62.28 3.168.688 4.567 1.24 12.86 5.079 22.873 18.041 15.86 39.206-7.046 21.267-28.289 39.885-54.144 48.136-7.944 2.535-15.586 3.807-22.638 3.821a53.3 53.3 0 0 1-1.441-.016c-5.722-.138-11.47-1.177-16.722-3.233-1.34-.524-2.658-1.135-3.74-1.976a15.454 15.454 0 0 1-2.125-1.994 10.386 10.386 0 0 1-1.715-2.743c-2.155-4.994.875-9.267 4.806-12.42 11.77-9.44 23.786-19.407 32.495-31.86a160.725 160.725 0 0 0 10.398-17.028c2.879-5.451 5.898-10.455 10.86-14.317z" id="path26"/><path class="st10" d="M157.35 260.571c3.59-2.824 7.405-5.156 11.703-6.385 1.82-.52 3.717-.853 5.647-.972a26.574 26.574 0 0 1 6.08.329c1.628.276 3.18.68 4.57 1.232 12.809 5.092 22.628 17.98 15.65 38.896-7.036 21.089-28.18 39.57-53.727 47.723-7.884 2.515-15.466 3.779-22.462 3.794a52.49 52.49 0 0 1-1.43-.016c-5.684-.135-11.386-1.165-16.592-3.203-1.328-.52-2.632-1.118-3.688-1.955a15.4 15.4 0 0 1-2.07-1.977 10.162 10.162 0 0 1-1.657-2.707c-2.076-4.923.924-9.136 4.81-12.253 11.64-9.338 23.514-19.202 32.137-31.51a159.333 159.333 0 0 0 10.3-16.83c2.851-5.386 5.848-10.325 10.73-14.166z" id="path28"/><path class="st11" d="M157.29 261.165c3.573-2.841 7.332-5.232 11.607-6.507 1.81-.54 3.702-.891 5.63-1.026a26.096 26.096 0 0 1 6.08.293c1.64.271 3.195.671 4.576 1.224 12.757 5.106 22.382 17.917 15.438 38.587-7.024 20.91-28.07 39.253-53.31 47.308-7.822 2.496-15.344 3.75-22.285 3.768-.473.001-.946-.004-1.419-.015-5.646-.133-11.301-1.154-16.462-3.174-1.315-.515-2.605-1.1-3.636-1.934a15.397 15.397 0 0 1-2.015-1.96 9.94 9.94 0 0 1-1.6-2.671c-1.997-4.85.974-9.005 4.815-12.087 11.51-9.236 23.243-18.996 31.78-31.16a157.942 157.942 0 0 0 10.2-16.63c2.825-5.322 5.799-10.196 10.6-14.016z" id="path30"/><path class="st12" d="M157.23 261.76c3.555-2.86 7.258-5.308 11.511-6.63 1.8-.56 3.687-.93 5.612-1.08a25.631 25.631 0 0 1 6.082.257c1.649.266 3.209.663 4.58 1.216 12.706 5.12 22.137 17.855 15.227 38.278-7.013 20.73-27.961 38.936-52.893 46.893-7.76 2.477-15.223 3.723-22.108 3.742-.469.001-.938-.004-1.408-.015-5.607-.13-11.217-1.142-16.332-3.145-1.301-.51-2.58-1.082-3.583-1.913a15.375 15.375 0 0 1-1.96-1.943c-.647-.772-1.153-1.664-1.542-2.634-1.92-4.779 1.022-8.875 4.818-11.921 11.38-9.135 22.971-18.79 31.422-30.809a156.558 156.558 0 0 0 10.1-16.431c2.8-5.258 5.75-10.068 10.473-13.866z" id="path32"/><path class="st13" d="M157.169 262.353c3.537-2.876 7.186-5.383 11.416-6.752a25.188 25.188 0 0 1 5.595-1.133 25.18 25.18 0 0 1 6.083.22c1.659.262 3.222.656 4.585 1.21 12.654 5.133 21.89 17.791 15.016 37.968-7.002 20.552-27.853 38.62-52.477 46.479-7.7 2.457-15.101 3.694-21.931 3.715a53.15 53.15 0 0 1-1.397-.014c-5.57-.128-11.132-1.131-16.202-3.116-1.288-.505-2.553-1.064-3.531-1.892a15.355 15.355 0 0 1-1.905-1.926c-.626-.761-1.111-1.642-1.485-2.598-1.84-4.707 1.072-8.744 4.823-11.755 11.25-9.033 22.7-18.584 31.064-30.458a155.165 155.165 0 0 0 10.002-16.232c2.772-5.193 5.7-9.94 10.344-13.716z" id="path34"/><path class="st14" d="M157.108 262.947c3.52-2.894 7.114-5.458 11.32-6.874a24.782 24.782 0 0 1 5.579-1.187 24.743 24.743 0 0 1 6.084.185c1.669.256 3.236.647 4.59 1.2 12.602 5.148 21.643 17.73 14.804 37.66-6.991 20.373-27.743 38.303-52.06 46.064-7.638 2.437-14.98 3.666-21.754 3.688-.462.002-.923-.002-1.385-.013-5.532-.125-11.048-1.12-16.073-3.087-1.275-.499-2.526-1.045-3.48-1.87a15.343 15.343 0 0 1-1.848-1.91c-.607-.75-1.07-1.62-1.428-2.561-1.761-4.635 1.12-8.613 4.827-11.59 11.12-8.93 22.428-18.377 30.706-30.107a153.774 153.774 0 0 0 9.903-16.033c2.746-5.128 5.65-9.812 10.215-13.565z" id="path36"/><path class="st15" d="M157.047 263.541c3.503-2.911 7.042-5.534 11.225-6.996a24.388 24.388 0 0 1 5.561-1.24 24.32 24.32 0 0 1 6.086.148c1.679.251 3.25.639 4.594 1.192 12.55 5.162 21.397 17.667 14.593 37.35-6.98 20.195-27.634 37.988-51.642 45.65-7.578 2.418-14.86 3.638-21.578 3.662-.458.002-.916-.002-1.374-.013-5.494-.122-10.964-1.107-15.942-3.057-1.263-.494-2.5-1.026-3.428-1.85a15.334 15.334 0 0 1-1.794-1.892c-.587-.739-1.028-1.597-1.37-2.525-1.683-4.563 1.17-8.482 4.831-11.423 10.99-8.83 22.156-18.173 30.349-29.757a152.397 152.397 0 0 0 9.803-15.834c2.72-5.064 5.6-9.686 10.086-13.415z" id="path38"/><path class="st16" d="M156.986 264.135c3.486-2.93 6.97-5.61 11.13-7.118a24.003 24.003 0 0 1 5.544-1.295 23.907 23.907 0 0 1 6.087.113c1.688.246 3.263.63 4.598 1.184 12.5 5.176 21.15 17.605 14.382 37.042-6.97 20.015-27.524 37.67-51.225 45.235-7.516 2.398-14.738 3.61-21.401 3.635-.454.002-.909-.002-1.363-.012-5.456-.12-10.88-1.096-15.812-3.028-1.25-.49-2.474-1.008-3.376-1.83a15.33 15.33 0 0 1-1.739-1.874c-.566-.728-.986-1.576-1.313-2.49-1.603-4.49 1.22-8.35 4.836-11.256 10.86-8.727 21.885-17.967 29.99-29.407a151.018 151.018 0 0 0 9.705-15.635c2.693-4.998 5.549-9.558 9.957-13.264z" id="path40"/><path class="st17" d="M156.926 264.729c3.467-2.948 6.896-5.685 11.034-7.24a23.634 23.634 0 0 1 5.527-1.349 23.51 23.51 0 0 1 6.088.076c1.698.242 3.277.624 4.603 1.177 12.447 5.19 20.903 17.542 14.17 36.733-6.959 19.835-27.414 37.354-50.808 44.82-7.455 2.379-14.616 3.582-21.224 3.61a51.73 51.73 0 0 1-1.352-.013c-5.418-.117-10.795-1.084-15.682-2.999-1.237-.484-2.447-.989-3.324-1.807a15.33 15.33 0 0 1-1.683-1.858c-.547-.717-.945-1.554-1.256-2.453-1.525-4.418 1.268-8.22 4.84-11.091 10.73-8.626 21.613-17.76 29.633-29.056a149.644 149.644 0 0 0 9.606-15.436c2.666-4.934 5.497-9.433 9.828-13.114z" id="path42"/><path class="st18" d="M156.865 265.323c3.45-2.966 6.824-5.76 10.939-7.362a23.272 23.272 0 0 1 5.51-1.403 23.12 23.12 0 0 1 6.088.04c1.71.237 3.291.616 4.608 1.169 12.396 5.205 20.657 17.48 13.96 36.423-6.95 19.657-27.306 37.039-50.392 44.407-7.393 2.359-14.495 3.553-21.047 3.582a54.38 54.38 0 0 1-1.34-.011c-5.38-.114-10.711-1.073-15.553-2.97-1.224-.48-2.42-.97-3.272-1.787a15.336 15.336 0 0 1-1.628-1.84c-.527-.707-.904-1.532-1.198-2.417-1.446-4.346 1.317-8.09 4.844-10.925 10.6-8.524 21.341-17.555 29.275-28.706a148.271 148.271 0 0 0 9.507-15.236c2.64-4.87 5.446-9.307 9.699-12.964z" id="path44"/><path class="st19" d="M156.804 265.917c3.432-2.985 6.752-5.835 10.844-7.485a22.922 22.922 0 0 1 5.492-1.456c1.997-.271 4.05-.27 6.09.004 1.719.232 3.305.608 4.613 1.16 12.344 5.22 20.409 17.418 13.748 36.115-6.939 19.478-27.196 36.722-49.974 43.992-7.333 2.34-14.374 3.525-20.871 3.556a53.61 53.61 0 0 1-1.33-.011c-5.341-.111-10.626-1.061-15.422-2.94-1.211-.475-2.393-.95-3.22-1.766a15.341 15.341 0 0 1-1.573-1.824c-.507-.695-.862-1.51-1.14-2.38-1.368-4.274 1.366-7.959 4.848-10.76 10.47-8.42 21.07-17.348 28.918-28.354a146.9 146.9 0 0 0 9.407-15.038c2.613-4.804 5.394-9.181 9.57-12.813z" id="path46"/><path class="st20" d="M156.744 266.51c3.414-3.003 6.679-5.91 10.747-7.606a22.38 22.38 0 0 1 11.567-1.542c1.729.227 3.319.6 4.617 1.153 12.293 5.234 20.162 17.355 13.537 35.805-6.929 19.299-27.087 36.406-49.557 43.577-7.271 2.32-14.253 3.497-20.694 3.53-.44.002-.88-.002-1.319-.01-5.303-.11-10.541-1.05-15.292-2.912-1.198-.47-2.365-.93-3.168-1.744a15.348 15.348 0 0 1-1.517-1.807c-.488-.684-.82-1.487-1.084-2.345-1.289-4.2 1.416-7.827 4.853-10.592 10.339-8.32 20.798-17.143 28.56-28.005a145.529 145.529 0 0 0 9.308-14.838c2.587-4.74 5.342-9.057 9.442-12.663z" id="path48"/><path class="st21" d="M156.683 267.105c3.396-3.023 6.607-5.986 10.652-7.729a22.024 22.024 0 0 1 11.551-1.632c1.739.222 3.332.592 4.622 1.145 12.24 5.249 19.913 17.292 13.326 35.496-6.92 19.12-26.978 36.09-49.141 43.163-7.21 2.3-14.131 3.468-20.517 3.503-.436.002-.872-.001-1.308-.01-5.265-.106-10.456-1.038-15.161-2.882-1.186-.465-2.339-.911-3.117-1.724a15.358 15.358 0 0 1-1.462-1.79c-.467-.673-.779-1.464-1.026-2.308-1.21-4.128 1.465-7.696 4.857-10.426 10.209-8.218 20.527-16.937 28.202-27.654a144.168 144.168 0 0 0 9.21-14.64c2.56-4.675 5.29-8.932 9.312-12.512z" id="path50"/><path class="st22" d="M156.622 267.699c3.378-3.043 6.535-6.062 10.557-7.851a21.681 21.681 0 0 1 11.535-1.721c1.749.216 3.346.583 4.626 1.136 12.189 5.263 19.666 17.23 13.115 35.187-6.91 18.94-26.869 35.773-48.724 42.748-7.149 2.281-14.01 3.44-20.34 3.476a50 50 0 0 1-1.296-.009c-5.228-.103-10.373-1.026-15.032-2.853-1.173-.459-2.311-.89-3.065-1.702a15.359 15.359 0 0 1-1.407-1.773c-.447-.662-.737-1.442-.968-2.272-1.132-4.055 1.514-7.565 4.861-10.26 10.079-8.116 20.255-16.731 27.844-27.304a142.805 142.805 0 0 0 9.11-14.44c2.534-4.61 5.238-8.809 9.184-12.362z" id="path52"/><path class="st23" d="M156.561 268.292c3.36-3.062 6.462-6.136 10.462-7.972a21.63 21.63 0 0 1 5.424-1.672 21.35 21.35 0 0 1 6.095-.14c1.759.211 3.36.576 4.63 1.129 12.138 5.278 19.418 17.166 12.904 34.878-6.9 18.761-26.76 35.456-48.307 42.333-7.087 2.262-13.888 3.413-20.163 3.45-.429.003-.857 0-1.285-.009-5.19-.1-10.288-1.014-14.902-2.823-1.16-.454-2.283-.87-3.013-1.681a15.364 15.364 0 0 1-1.351-1.757c-.428-.651-.696-1.42-.912-2.235-1.052-3.982 1.564-7.434 4.866-10.094 9.949-8.015 19.983-16.525 27.486-26.953a141.451 141.451 0 0 0 9.012-14.241c2.507-4.546 5.185-8.686 9.054-12.213z" id="path54"/><path class="st24" d="M156.5 268.886c3.342-3.082 6.39-6.212 10.367-8.095a21.332 21.332 0 0 1 5.407-1.725 21.024 21.024 0 0 1 6.096-.176c1.768.206 3.373.568 4.635 1.12 12.085 5.294 19.17 17.105 12.692 34.57-6.891 18.582-26.65 35.14-47.89 41.919-7.026 2.242-13.767 3.384-19.986 3.423-.425.003-.85 0-1.274-.008-5.151-.098-10.204-1.003-14.772-2.794-1.147-.45-2.255-.85-2.961-1.66a15.359 15.359 0 0 1-1.296-1.74c-.408-.64-.654-1.397-.854-2.199-.974-3.91 1.613-7.303 4.87-9.928 9.819-7.913 19.712-16.32 27.129-26.602a140.117 140.117 0 0 0 8.912-14.043c2.48-4.481 5.132-8.562 8.926-12.062z" id="path56"/><path class="st25" d="M156.44 269.48c3.323-3.102 6.317-6.287 10.27-8.217a21.043 21.043 0 0 1 5.39-1.78 20.71 20.71 0 0 1 6.098-.21c1.778.2 3.387.559 4.64 1.111 12.033 5.31 18.92 17.042 12.48 34.26-6.882 18.403-26.54 34.824-47.472 41.505-6.965 2.222-13.646 3.356-19.81 3.397-.421.003-.842 0-1.263-.008-5.113-.095-10.12-.991-14.642-2.765-1.134-.444-2.227-.83-2.91-1.64a15.344 15.344 0 0 1-1.24-1.721c-.388-.63-.612-1.375-.796-2.163-.896-3.836 1.662-7.172 4.874-9.762 9.689-7.81 19.44-16.114 26.771-26.252a138.757 138.757 0 0 0 8.813-13.843c2.454-4.417 5.079-8.44 8.797-11.912z" id="path58"/><path class="st26" d="M156.38 270.074c3.304-3.123 6.244-6.363 10.174-8.339a20.766 20.766 0 0 1 5.374-1.833 20.406 20.406 0 0 1 6.098-.248c1.788.196 3.4.552 4.644 1.104 11.981 5.324 18.672 16.979 12.27 33.951-6.874 18.224-26.431 34.508-47.056 41.09-6.904 2.203-13.525 3.328-19.633 3.37-.418.004-.835.001-1.252-.006-5.075-.093-10.035-.98-14.512-2.736-1.12-.44-2.2-.808-2.857-1.618a15.315 15.315 0 0 1-1.185-1.706c-.37-.62-.572-1.352-.74-2.126-.817-3.763 1.711-7.042 4.88-9.596 9.558-7.71 19.167-15.908 26.412-25.901a137.409 137.409 0 0 0 8.714-13.644c2.428-4.352 5.025-8.318 8.668-11.762z" id="path60"/><path class="st27" d="M156.319 270.668c3.285-3.144 6.172-6.438 10.079-8.461a20.495 20.495 0 0 1 5.356-1.888c1.98-.4 4.04-.5 6.1-.283 1.798.19 3.414.544 4.648 1.096 11.93 5.34 18.423 16.916 12.059 33.642-6.865 18.044-26.322 34.191-46.639 40.676-6.843 2.183-13.403 3.3-19.456 3.344a51.2 51.2 0 0 1-1.24-.007c-5.038-.09-9.951-.968-14.383-2.706-1.107-.435-2.171-.787-2.805-1.598-.4-.51-.824-1.156-1.13-1.688-.35-.61-.53-1.33-.682-2.09-.739-3.69 1.76-6.91 4.883-9.43 9.428-7.607 18.897-15.702 26.055-25.55a136.063 136.063 0 0 0 8.616-13.446c2.4-4.287 4.97-8.196 8.539-11.61z" id="path62"/><path class="st28" d="M156.258 271.262c3.266-3.165 6.1-6.514 9.984-8.583a20.235 20.235 0 0 1 5.34-1.942 19.808 19.808 0 0 1 6.1-.319c1.808.185 3.427.536 4.653 1.088 11.877 5.355 18.173 16.852 11.847 33.333-6.857 17.865-26.212 33.875-46.222 40.261-6.781 2.164-13.282 3.271-19.28 3.318-.41.003-.82 0-1.229-.007-4.998-.086-9.865-.956-14.251-2.677-1.095-.43-2.144-.765-2.754-1.576-.38-.505-.787-1.15-1.074-1.671-.33-.6-.489-1.308-.625-2.054-.66-3.616 1.81-6.78 4.887-9.264 9.298-7.505 18.625-15.496 25.698-25.2a134.731 134.731 0 0 0 8.516-13.246c2.374-4.223 4.916-8.075 8.41-11.46z" id="path64"/><path class="st29" d="M156.197 271.856c3.247-3.187 6.027-6.589 9.888-8.705a19.984 19.984 0 0 1 5.323-1.996 19.544 19.544 0 0 1 6.102-.355c1.818.18 3.441.528 4.657 1.08 11.826 5.37 17.924 16.79 11.636 33.024-6.849 17.685-26.103 33.559-45.804 39.847-6.72 2.144-13.161 3.242-19.103 3.29-.407.004-.813.002-1.218-.005-4.961-.084-9.782-.945-14.122-2.648-1.082-.425-2.115-.743-2.702-1.555-.36-.498-.75-1.144-1.019-1.655-.31-.589-.447-1.285-.568-2.017-.582-3.543 1.859-6.65 4.892-9.098 9.168-7.404 18.353-15.29 25.34-24.85a133.4 133.4 0 0 0 8.417-13.046c2.348-4.158 4.861-7.955 8.281-11.311z" id="path66"/><path class="st30" d="M156.137 272.45c3.227-3.209 5.954-6.664 9.792-8.828a19.743 19.743 0 0 1 5.306-2.049 19.274 19.274 0 0 1 6.102-.39c1.829.173 3.456.52 4.663 1.071 11.773 5.386 17.673 16.726 11.425 32.715-6.842 17.506-25.994 33.242-45.388 39.432-6.66 2.125-13.04 3.215-18.926 3.264a46.93 46.93 0 0 1-1.207-.005c-4.923-.081-9.697-.933-13.992-2.619-1.07-.419-2.087-.72-2.65-1.534a14.99 14.99 0 0 1-.964-1.637c-.291-.58-.405-1.263-.51-1.981-.504-3.469 1.908-6.518 4.896-8.932 9.038-7.302 18.082-15.084 24.982-24.5a131.76 131.76 0 0 0 8.318-12.847c2.321-4.093 4.806-7.834 8.153-11.16z" id="path68"/><path class="st30" d="M156.076 273.044c3.207-3.23 5.882-6.74 9.697-8.95a19.508 19.508 0 0 1 5.288-2.103 19.01 19.01 0 0 1 6.104-.427c1.839.169 3.47.512 4.667 1.064 11.722 5.401 17.423 16.663 11.214 32.406-6.834 17.326-25.885 32.926-44.97 39.017-6.599 2.105-12.92 3.187-18.75 3.238-.4.004-.798.002-1.196-.004-4.885-.08-9.613-.922-13.862-2.59-1.056-.414-2.21-.615-2.598-1.513-.399-.42-.675-1.132-.908-1.62-.272-.57-.365-1.24-.453-1.945-.426-3.395 1.957-6.387 4.9-8.766 8.908-7.2 17.81-14.878 24.624-24.149 2.98-4.055 5.728-8.28 8.22-12.648 2.294-4.029 4.75-7.714 8.023-11.01z" id="path70"/><path class="st31" d="M156.015 273.638c3.188-3.253 5.81-6.815 9.602-9.072a19.282 19.282 0 0 1 5.271-2.157 18.755 18.755 0 0 1 6.105-.463c1.849.163 3.483.504 4.671 1.056 11.67 5.417 17.173 16.599 11.003 32.097-6.827 17.146-25.775 32.61-44.554 38.603-6.536 2.085-12.797 3.158-18.572 3.211-.396.004-.79.002-1.185-.004-4.847-.076-9.528-.91-13.732-2.56-1.043-.41-2.188-.593-2.546-1.492-.381-.413-.638-1.127-.853-1.604-.253-.56-.323-1.218-.395-1.908-.349-3.321 2.006-6.256 4.904-8.6 8.778-7.098 17.539-14.672 24.267-23.798a129.449 129.449 0 0 0 8.12-12.45c2.268-3.964 4.695-7.594 7.894-10.86z" id="path72"/><path class="st32" d="M155.954 274.232c3.168-3.276 5.737-6.89 9.507-9.194a19.063 19.063 0 0 1 5.254-2.21 18.507 18.507 0 0 1 6.106-.5c1.859.158 3.496.496 4.676 1.048 11.617 5.433 16.922 16.535 10.791 31.788-6.82 16.966-25.666 32.293-44.137 38.188-6.475 2.066-12.675 3.13-18.395 3.185-.392.004-.783.003-1.174-.004-4.808-.073-9.444-.898-13.602-2.53-1.03-.405-2.166-.572-2.494-1.472-.363-.406-.6-1.12-.797-1.586-.234-.55-.282-1.195-.339-1.872-.27-3.247 2.056-6.126 4.91-8.434 8.647-6.996 17.266-14.466 23.908-23.448a128.143 128.143 0 0 0 8.02-12.25c2.242-3.9 4.64-7.475 7.766-10.71z" id="path74"/><path class="st33" d="M155.894 274.826c3.146-3.3 5.664-6.966 9.41-9.316a18.855 18.855 0 0 1 5.238-2.265 18.267 18.267 0 0 1 6.107-.535c1.869.152 3.51.488 4.68 1.04 11.565 5.449 16.671 16.472 10.58 31.478-6.813 16.787-25.556 31.977-43.72 37.774-6.414 2.047-12.554 3.102-18.218 3.159-.388.004-.776.003-1.163-.003-4.77-.07-9.359-.887-13.471-2.502-1.018-.4-2.145-.549-2.443-1.45-.346-.4-.563-1.115-.742-1.57-.214-.54-.24-1.172-.281-1.835-.193-3.173 2.104-5.995 4.913-8.268 8.518-6.895 16.995-14.26 23.551-23.097a126.846 126.846 0 0 0 7.922-12.051c2.215-3.835 4.582-7.357 7.637-10.56z" id="path76"/><path class="st34" d="M155.833 275.42c3.125-3.323 5.592-7.042 9.315-9.438a18.653 18.653 0 0 1 5.22-2.319 18.034 18.034 0 0 1 6.11-.57c1.877.146 3.523.48 4.684 1.03 11.512 5.466 16.42 16.409 10.369 31.17-6.807 16.607-25.447 31.66-43.303 37.36-6.353 2.027-12.433 3.073-18.042 3.132-.385.004-.768.003-1.152-.003-4.732-.068-9.274-.875-13.341-2.472-1.005-.395-2.123-.527-2.391-1.43-.328-.392-.525-1.11-.687-1.552-.194-.532-.199-1.15-.223-1.8-.116-3.097 2.153-5.863 4.917-8.1 8.388-6.794 16.724-14.056 23.193-22.748a125.553 125.553 0 0 0 7.823-11.852c2.188-3.77 4.526-7.238 7.508-10.408z" id="path78"/><path class="st35" d="M155.772 276.013c3.104-3.346 5.52-7.116 9.22-9.56a18.458 18.458 0 0 1 5.203-2.372 17.806 17.806 0 0 1 6.11-.607c1.888.141 3.537.473 4.69 1.024 11.46 5.48 16.167 16.344 10.157 30.86-6.8 16.426-25.338 31.344-42.886 36.945-6.292 2.008-12.312 3.046-17.865 3.106a43.3 43.3 0 0 1-1.14-.003c-4.695-.065-9.19-.863-13.212-2.443-.992-.39-2.101-.505-2.339-1.408-.31-.385-.487-1.105-.631-1.535-.176-.524-.158-1.127-.167-1.764-.039-3.022 2.203-5.732 4.922-7.935 8.258-6.69 16.452-13.849 22.836-22.396 2.79-3.738 5.373-7.63 7.723-11.653 2.162-3.705 4.469-7.12 7.38-10.259z" id="path80"/><path class="st36" d="M155.712 276.607c3.082-3.37 5.447-7.192 9.124-9.682a18.27 18.27 0 0 1 5.186-2.426 17.586 17.586 0 0 1 6.11-.643c1.9.136 3.552.465 4.695 1.016 11.408 5.497 15.916 16.28 9.946 30.551-6.795 16.246-25.228 31.028-42.469 36.53-6.23 1.988-12.19 3.018-17.688 3.08a44.48 44.48 0 0 1-1.13-.002c-4.656-.063-9.105-.852-13.08-2.414-.98-.385-2.08-.483-2.288-1.387-.292-.379-.45-1.1-.576-1.518-.156-.515-.117-1.105-.109-1.728.038-2.948 2.252-5.601 4.926-7.769 8.128-6.589 16.18-13.643 22.478-22.046a123.082 123.082 0 0 0 7.625-11.453c2.135-3.641 4.41-7.003 7.25-10.109z" id="path82"/><path class="st37" d="M155.65 277.201c3.06-3.395 5.375-7.267 9.03-9.804a18.09 18.09 0 0 1 5.169-2.48 17.38 17.38 0 0 1 6.112-.679c1.908.13 3.564.457 4.698 1.008 11.356 5.513 15.664 16.216 9.736 30.242-6.79 16.065-25.12 30.711-42.052 36.116-6.17 1.968-12.07 2.989-17.512 3.052-.374.005-.746.004-1.118 0-4.618-.06-9.022-.841-12.952-2.386-.966-.379-2.058-.46-2.235-1.365-.275-.372-.412-1.096-.52-1.502-.137-.506-.076-1.082-.052-1.69.114-2.874 2.3-5.471 4.93-7.603 7.998-6.488 15.909-13.438 22.12-21.696a121.73 121.73 0 0 0 7.526-11.255c2.108-3.576 4.352-6.885 7.12-9.958z" id="path84"/><path class="st38" d="M155.59 277.795c3.037-3.42 5.302-7.343 8.933-9.926a17.918 17.918 0 0 1 5.152-2.534 17.164 17.164 0 0 1 6.114-.715c1.918.124 3.578.45 4.703 1 11.302 5.53 15.41 16.152 9.524 29.933-6.786 15.885-25.01 30.395-41.635 35.701-6.109 1.95-11.948 2.961-17.335 3.026-.37.005-.739.004-1.107 0-4.58-.057-8.937-.83-12.822-2.356-.953-.374-2.036-.439-2.183-1.345-.257-.365-.373-1.09-.465-1.484-.117-.499-.035-1.06.005-1.655.19-2.798 2.35-5.34 4.935-7.436 7.867-6.386 15.637-13.232 21.762-21.345a120.467 120.467 0 0 0 7.427-11.056c2.082-3.511 4.294-6.769 6.992-9.808z" id="path86"/><path class="st39" d="M155.53 278.39c3.014-3.447 5.229-7.419 8.837-10.05a17.75 17.75 0 0 1 5.135-2.587c1.95-.612 4.026-.88 6.115-.751 1.928.119 3.591.441 4.707.992 11.25 5.546 15.158 16.087 9.313 29.624-6.78 15.704-24.9 30.079-41.218 35.286-6.047 1.93-11.827 2.933-17.158 3-.366.005-.732.005-1.096 0-4.542-.054-8.852-.817-12.691-2.326-.94-.37-2.015-.417-2.132-1.324-.239-.358-.335-1.086-.41-1.467-.096-.491.006-1.037.063-1.619.266-2.723 2.4-5.209 4.94-7.27 7.736-6.285 15.365-13.026 21.404-20.995a119.214 119.214 0 0 0 7.327-10.856c2.056-3.447 4.235-6.653 6.863-9.658z" id="path88"/><path class="st40" d="M155.469 278.983c2.99-3.472 5.157-7.493 8.742-10.17a17.592 17.592 0 0 1 5.118-2.642 16.767 16.767 0 0 1 6.116-.787c1.938.113 3.605.434 4.711.983 11.198 5.564 14.905 16.024 9.102 29.316-6.777 15.523-24.791 29.762-40.8 34.872-5.987 1.91-11.706 2.904-16.982 2.973-.363.005-.724.005-1.085 0-4.504-.051-8.768-.805-12.561-2.297-.927-.364-1.993-.395-2.08-1.302-.221-.352-.296-1.083-.355-1.45-.076-.484.048-1.014.12-1.583.342-2.647 2.45-5.078 4.944-7.104 7.607-6.183 15.094-12.82 21.047-20.644a117.975 117.975 0 0 0 7.228-10.658c2.03-3.382 4.176-6.536 6.735-9.507z" id="path90"/><path class="st41" d="M155.408 279.577c2.966-3.499 5.085-7.569 8.647-10.293a17.439 17.439 0 0 1 5.1-2.695 16.576 16.576 0 0 1 6.118-.823c1.948.107 3.618.426 4.716.975 11.145 5.581 14.65 15.959 8.89 29.006-6.773 15.342-24.681 29.447-40.384 34.458-5.924 1.89-11.584 2.876-16.804 2.947-.359.005-.717.005-1.074 0-4.466-.048-8.683-.793-12.431-2.267-.914-.36-1.971-.373-2.028-1.282-.203-.344-.258-1.078-.3-1.433-.055-.476.089-.99.179-1.546.416-2.572 2.497-4.947 4.947-6.938 7.477-6.08 14.822-12.614 20.69-20.294a116.751 116.751 0 0 0 7.129-10.458c2.002-3.318 4.115-6.42 6.605-9.357z" id="path92"/><path class="st42" d="M155.347 280.171c2.942-3.525 5.012-7.644 8.552-10.415a17.277 17.277 0 0 1 5.084-2.75 16.39 16.39 0 0 1 6.117-.858c1.959.101 3.633.418 4.721.967 11.093 5.598 14.397 15.894 8.68 28.697-6.77 15.16-24.573 29.13-39.967 34.044-5.864 1.87-11.463 2.848-16.628 2.92-.355.005-.71.005-1.063.001-4.428-.046-8.599-.782-12.3-2.238-.902-.355-1.95-.351-1.977-1.261-.186-.338-.218-1.075-.244-1.417-.035-.469.129-.967.235-1.509.491-2.497 2.547-4.816 4.952-6.772 7.347-5.98 14.55-12.409 20.331-19.943a115.539 115.539 0 0 0 7.03-10.26c1.977-3.252 4.056-6.304 6.477-9.206z" id="path94"/><path class="st43" d="M155.287 280.765c2.915-3.553 4.94-7.72 8.455-10.537a17.152 17.152 0 0 1 5.067-2.803 16.211 16.211 0 0 1 6.12-.895c1.968.096 3.645.41 4.725.96 11.04 5.614 14.142 15.828 8.468 28.387-6.767 14.98-24.463 28.814-39.55 33.629-5.803 1.851-11.342 2.82-16.451 2.893-.352.006-.702.006-1.051.003-4.39-.044-8.515-.771-12.172-2.21-.888-.35-1.928-.329-1.924-1.24-.168-.33-.179-1.07-.188-1.399-.014-.462.169-.945.292-1.473.565-2.422 2.596-4.685 4.956-6.606 7.217-5.877 14.279-12.203 19.974-19.593a114.336 114.336 0 0 0 6.931-10.06c1.95-3.188 3.995-6.19 6.348-9.056z" id="path96"/><path class="st44" d="M155.226 281.359c2.89-3.58 4.867-7.795 8.36-10.66a17.018 17.018 0 0 1 5.05-2.856 16.037 16.037 0 0 1 6.12-.931c1.979.09 3.66.403 4.73.951 10.987 5.632 13.887 15.764 8.257 28.08-6.765 14.796-24.354 28.496-39.133 33.213-5.741 1.832-11.22 2.792-16.274 2.867a40.1 40.1 0 0 1-1.04.003c-4.352-.04-8.43-.76-12.042-2.18-.875-.345-1.906-.307-1.872-1.219-.15-.323-.139-1.067-.133-1.382.008-.456.21-.922.35-1.437.638-2.347 2.645-4.554 4.96-6.44 7.087-5.775 14.007-11.997 19.616-19.242a113.145 113.145 0 0 0 6.832-9.861c1.923-3.124 3.934-6.075 6.219-8.906z" id="path98"/><path class="st45" d="M155.165 281.953c2.863-3.609 4.795-7.87 8.265-10.781a16.889 16.889 0 0 1 5.033-2.912 15.867 15.867 0 0 1 6.121-.966c1.989.084 3.673.395 4.735.943 10.933 5.65 13.632 15.698 8.045 27.77-6.763 14.615-24.244 28.18-38.716 32.8-5.68 1.812-11.099 2.763-16.097 2.84a41.33 41.33 0 0 1-1.03.003c-4.313-.038-8.345-.747-11.91-2.15-.863-.34-1.885-.285-1.82-1.198-.133-.317-.1-1.064-.079-1.366.03-.449.25-.899.407-1.4.712-2.272 2.695-4.423 4.965-6.274 6.957-5.674 13.736-11.79 19.258-18.892a111.964 111.964 0 0 0 6.733-9.662c1.897-3.058 3.873-5.96 6.09-8.755z" id="path100"/><path class="st46" d="M155.105 282.547c2.834-3.638 4.722-7.946 8.169-10.904a16.766 16.766 0 0 1 5.016-2.965 15.703 15.703 0 0 1 6.122-1.002c1.999.078 3.687.387 4.74.935 10.88 5.667 13.375 15.633 7.834 27.46-6.762 14.434-24.136 27.865-38.3 32.386-5.618 1.793-10.977 2.735-15.92 2.814-.34.005-.68.007-1.018.004-4.276-.036-8.261-.736-11.781-2.122-.85-.334-1.863-.263-1.769-1.176-.115-.31-.057-1.061-.022-1.349.053-.442.29-.877.464-1.364.785-2.198 2.744-4.293 4.97-6.108 6.826-5.572 13.463-11.585 18.9-18.541a110.809 110.809 0 0 0 6.634-9.463c1.87-2.994 3.81-5.846 5.96-8.605z" id="path102"/><path class="st47" d="M155.044 283.14c2.806-3.666 4.65-8.02 8.074-11.025a16.65 16.65 0 0 1 4.998-3.019 15.543 15.543 0 0 1 6.124-1.038c2.008.072 3.7.38 4.744.927 10.827 5.685 13.12 15.567 7.623 27.152-6.762 14.25-24.026 27.548-37.882 31.97-5.558 1.774-10.857 2.707-15.744 2.788-.337.005-.673.007-1.007.004-4.238-.032-8.177-.724-11.651-2.092-.837-.33-1.841-.241-1.717-1.156-.097-.303-.016-1.057.033-1.331.077-.436.33-.854.522-1.328.856-2.123 2.793-4.162 4.973-5.942 6.697-5.47 13.192-11.38 18.543-18.19a109.673 109.673 0 0 0 6.535-9.264c1.843-2.93 3.748-5.732 5.832-8.455z" id="path104"/><path class="st48" d="M154.983 283.735c2.776-3.697 4.577-8.097 7.978-11.148a16.537 16.537 0 0 1 4.982-3.073 15.387 15.387 0 0 1 6.125-1.074c2.018.066 3.714.372 4.748.919 10.774 5.702 12.864 15.5 7.412 26.843-6.761 14.067-23.917 27.231-37.465 31.556-5.496 1.753-10.735 2.678-15.567 2.76a40.15 40.15 0 0 1-.996.006c-4.2-.03-8.092-.713-11.521-2.064-.824-.324-1.82-.219-1.665-1.134-.079-.296.026-1.053.088-1.315.102-.428.371-.831.58-1.291.928-2.05 2.842-4.03 4.977-5.776 6.567-5.368 12.92-11.173 18.185-17.84a108.554 108.554 0 0 0 6.436-9.065c1.816-2.864 3.685-5.617 5.703-8.304z" id="path106"/><path class="st49" d="M154.922 284.328c2.746-3.727 4.505-8.172 7.883-11.27a16.43 16.43 0 0 1 4.965-3.126 15.236 15.236 0 0 1 6.126-1.11c2.028.06 3.727.364 4.752.911 10.721 5.72 12.607 15.434 7.201 26.533-6.762 13.885-23.807 26.916-37.048 31.142-5.435 1.734-10.614 2.65-15.39 2.735-.33.005-.658.007-.985.005-4.161-.027-8.008-.701-11.39-2.034-.812-.32-1.799-.197-1.614-1.113-.061-.29.069-1.05.144-1.298.127-.421.41-.81.636-1.255 1-1.976 2.891-3.9 4.982-5.61 6.437-5.266 12.65-10.967 17.827-17.49a107.45 107.45 0 0 0 6.337-8.865c1.79-2.8 3.622-5.504 5.574-8.155z" id="path108"/><path class="st50" d="M154.862 284.922c2.714-3.758 4.432-8.247 7.787-11.391a16.33 16.33 0 0 1 4.948-3.18 15.09 15.09 0 0 1 6.127-1.147c2.038.054 3.74.356 4.757.903 10.667 5.738 12.35 15.367 6.99 26.224-6.764 13.7-23.698 26.6-36.632 30.727-5.374 1.715-10.492 2.623-15.213 2.708-.326.006-.65.008-.973.006-4.124-.024-7.924-.69-11.262-2.004-.798-.315-1.776-.175-1.56-1.093-.044-.282.11-1.045.198-1.28.154-.413.45-.787.694-1.22 1.07-1.902 2.94-3.768 4.986-5.443 6.306-5.164 12.378-10.761 17.47-17.139a106.38 106.38 0 0 0 6.238-8.666 182.356 182.356 0 0 1 5.445-8.005z" id="path110"/><path class="st51" d="M154.801 285.516c2.681-3.79 4.36-8.322 7.692-11.513a16.233 16.233 0 0 1 4.93-3.235 14.947 14.947 0 0 1 6.129-1.182c2.048.048 3.754.349 4.761.895 10.614 5.756 12.092 15.3 6.779 25.915-6.765 13.517-23.589 26.283-36.215 30.313-5.312 1.695-10.37 2.594-15.036 2.681a39.28 39.28 0 0 1-.962.007c-4.086-.022-7.84-.678-11.131-1.976-.786-.31-1.755-.153-1.51-1.071-.026-.276.154-1.04.255-1.264.18-.404.49-.764.75-1.183 1.142-1.83 2.99-3.637 4.991-5.277 6.176-5.063 12.106-10.556 17.112-16.789a105.31 105.31 0 0 0 6.139-8.467 241.169 241.169 0 0 1 5.316-7.854z" id="path112"/><path class="st52" d="M154.74 286.11c2.648-3.822 4.287-8.398 7.596-11.636a16.141 16.141 0 0 1 4.914-3.288c1.92-.823 4.01-1.262 6.13-1.218 2.058.042 3.768.34 4.766.887 10.56 5.775 11.833 15.233 6.567 25.606-6.768 13.332-23.48 25.967-35.797 29.898-5.252 1.676-10.25 2.566-14.86 2.655a38.84 38.84 0 0 1-.951.007c-4.048-.019-7.755-.666-11.001-1.946-.773-.305-1.582-.099-1.458-1.05.035-.267.198-1.035.31-1.247.209-.394.53-.743.808-1.147 1.212-1.758 3.04-3.506 4.995-5.111 6.046-4.96 11.834-10.35 16.754-16.438a104.288 104.288 0 0 0 6.04-8.268 369.283 369.283 0 0 1 5.187-7.704z" id="path114"/><path class="st53" d="M154.68 286.704c2.612-3.854 4.214-8.473 7.5-11.758a16.055 16.055 0 0 1 4.897-3.342c1.918-.84 4.009-1.292 6.13-1.254 2.069.036 3.78.335 4.771.879 10.496 5.813 11.574 15.166 6.356 25.297-6.77 13.147-23.37 25.65-35.38 29.483-5.19 1.656-10.129 2.538-14.683 2.63a38.25 38.25 0 0 1-.94.006c-4.01-.016-7.67-.654-10.871-1.916-.76-.3-1.578-.075-1.406-1.03.047-.258.241-1.028.365-1.23.237-.383.57-.72.866-1.11 1.282-1.687 3.088-3.376 5-4.945 5.915-4.859 11.562-10.144 16.395-16.087a103.294 103.294 0 0 0 5.941-8.07 864.271 864.271 0 0 1 5.059-7.553z" id="path116"/><path class="st54" d="M154.619 287.298c2.575-3.888 4.142-8.549 7.405-11.88a15.973 15.973 0 0 1 4.88-3.396c1.916-.856 4.008-1.325 6.131-1.29 2.079.027 3.794.327 4.776.87 10.443 5.83 11.314 15.099 6.145 24.989-6.776 12.961-23.261 25.334-34.964 29.069-5.129 1.636-10.007 2.51-14.506 2.602-.311.006-.62.009-.929.008-3.971-.014-7.586-.643-10.741-1.888-.746-.294-1.575-.053-1.353-1.008.057-.25.283-1.022.42-1.213.265-.37.609-.699.923-1.074 1.352-1.616 3.137-3.245 5.003-4.779 5.786-4.757 11.291-9.938 16.038-15.737 2.07-2.53 4.024-5.155 5.842-7.87 1.657-2.477 3.297-4.937 4.93-7.403z" id="path118"/><path class="st55" d="M154.558 287.892c2.537-3.922 4.07-8.624 7.31-12.002a15.895 15.895 0 0 1 4.862-3.45c1.915-.872 4.007-1.354 6.133-1.326 2.089.021 3.808.32 4.78.863 10.39 5.844 11.055 15.03 5.934 24.679-6.78 12.775-23.152 25.017-34.547 28.654-5.068 1.617-9.886 2.482-14.33 2.576-.307.006-.612.01-.917.008-3.933-.01-7.501-.631-10.61-1.858-.734-.29-1.575-.033-1.302-.987.069-.243.326-1.015.475-1.196.294-.358.649-.678.98-1.038 1.423-1.546 3.187-3.114 5.008-4.613 5.656-4.655 11.02-9.732 15.68-15.386a101.404 101.404 0 0 0 5.744-7.671 430.428 430.428 0 0 0 4.8-7.253z" id="path120"/><path class="st56" d="M154.497 288.486c2.498-3.957 3.998-8.7 7.215-12.124a15.823 15.823 0 0 1 4.845-3.504c1.912-.888 4.006-1.383 6.134-1.362 2.099.016 3.822.311 4.785.855 10.338 5.86 10.794 14.96 5.722 24.37-6.786 12.588-23.042 24.7-34.13 28.24-5.006 1.597-9.764 2.453-14.152 2.549-.304.006-.606.01-.907.009-3.895-.009-7.417-.62-10.48-1.83-.721-.284-1.576-.015-1.25-.966.08-.236.369-1.007.53-1.178.323-.344.689-.656 1.038-1.002 1.493-1.477 3.236-2.983 5.012-4.447 5.526-4.554 10.748-9.526 15.323-15.036a100.514 100.514 0 0 0 5.644-7.472 233.716 233.716 0 0 0 4.671-7.102z" id="path122"/><path class="st57" d="M154.437 289.08c2.455-3.992 3.924-8.775 7.118-12.246a15.753 15.753 0 0 1 4.829-3.558c1.91-.904 4.004-1.412 6.135-1.398 2.108.01 3.835.303 4.789.847 10.286 5.875 10.534 14.891 5.511 24.06-6.793 12.401-22.932 24.385-33.712 27.826-4.946 1.578-9.644 2.425-13.976 2.523-.3.006-.599.01-.895.009-3.858-.005-7.333-.608-10.352-1.8-.707-.28-1.576 0-1.197-.945.092-.23.411-.999.586-1.162.35-.328.728-.635 1.095-.965 1.564-1.41 3.284-2.852 5.016-4.28 5.396-4.453 10.476-9.321 14.965-14.686a99.66 99.66 0 0 0 5.545-7.273 156.338 156.338 0 0 0 4.543-6.952z" id="path124"/><path class="st58" d="M154.376 289.674c2.412-4.028 3.852-8.85 7.023-12.369a15.69 15.69 0 0 1 4.812-3.611c1.907-.92 4.003-1.441 6.136-1.434 2.118.005 3.849.296 4.793.838 10.234 5.892 10.262 14.817 5.3 23.752-6.815 12.205-22.823 24.069-33.295 27.411-4.884 1.559-9.522 2.397-13.8 2.496-.296.007-.59.01-.883.01-3.82-.002-7.248-.596-10.221-1.77-.695-.275-1.58.012-1.146-.924.104-.225.453-.99.641-1.145.378-.312.768-.614 1.153-.93 1.634-1.34 3.333-2.72 5.02-4.114 5.266-4.35 10.205-9.114 14.607-14.335a98.865 98.865 0 0 0 5.446-7.073 115.022 115.022 0 0 0 4.414-6.802z" id="path126"/><path class="st59" d="M124.597 324.65c2.927 1.157 6.31 1.742 10.09 1.742 4.462 0 9.339-.835 14.496-2.48 17.511-5.59 52.058-36.36 27.79-50.44-.936-.542-2.67-.83-4.798-.83-4.172 0-8.194 2.035-10.932 5.135-3.148 3.565-4.56 8.426-6.928 12.49-2.79 4.79-6.042 9.305-9.632 13.527-6.021 7.08-12.978 13.352-20.484 18.826-.201.146-.58.907-.696 1.127-.487.926.412.634 1.094.903z" id="path128"/><path class="st60" d="M101.795 331.48c17.273-12.192 39.417-32.21 51.728-59.772 7.683-16.45 22.025-16.993 29.736-14.11 7.718 2.896 18.423 10.986 12.17 30.84-6.069 19.3-25.383 37.891-52.927 46.682-25.552 8.153-38.663.547-40.893-.648-2.146-1.137-1.115-2.048.186-2.992" id="path130"/><circle class="st1" cx="148.841" cy="297.55" r="82.533" id="circle132"/><path class="st1" d="M122.877 348.573c-6.516 0-13.2-1.104-19.293-3.486-3.656-1.43-7.139-3.797-8.895-7.308-2.785-5.568 4.886-6.464 9.176-9.898 12.81-10.254 25.55-22.496 34.948-36.106 4.118-5.963 7.777-12.544 11.11-18.978 3.091-5.97 5.735-10.107 11.341-14.119 5.332-3.816 10.432-4.912 16.987-4.843 3.61.037 4.718.355 8.1 1.62 13.268 4.979 24.071 17.821 18.058 37.633-6.91 22.77-29.164 42.416-57.48 51.453-8.434 2.69-16.556 4.032-24.052 4.032z" id="path134"/><path class="st2" d="M161.146 259.214c3.555-2.571 6.979-3.975 10.833-4.61 1.906-.314 3.915-.442 6.085-.434 1.833.008 3.03.092 4.21.34 1.147.24 2.27.63 3.919 1.25 13.207 4.99 23.832 17.756 17.848 37.372-6.902 22.595-29.06 42.118-57.073 51.06-8.373 2.67-16.436 4.004-23.876 4.005a55.13 55.13 0 0 1-1.52-.02c-5.988-.157-12.06-1.258-17.632-3.437-1.417-.554-2.808-1.244-4.065-2.099a16.01 16.01 0 0 1-2.498-2.083 12.091 12.091 0 0 1-2.167-3.052c-2.71-5.494 4.859-6.396 9.103-9.794 12.68-10.153 25.288-22.267 34.6-35.733 4.081-5.9 7.71-12.411 11.015-18.779 3.064-5.902 5.696-9.992 11.218-13.986z" id="path136"/><path class="st3" d="M161.028 259.75c3.541-2.59 6.924-4.061 10.766-4.746 1.9-.34 3.911-.491 6.082-.5 1.83-.002 3.035.075 4.225.32 1.163.234 2.297.623 3.933 1.241 13.147 5.001 23.594 17.69 17.64 37.112-6.893 22.419-28.956 41.82-56.668 50.664-8.312 2.652-16.314 3.977-23.7 3.98-.501 0-1.004-.006-1.507-.02-5.95-.154-11.977-1.246-17.502-3.407-1.405-.55-2.784-1.228-4.015-2.078a15.833 15.833 0 0 1-2.442-2.067 11.774 11.774 0 0 1-2.109-3.015c-2.634-5.42 4.832-6.33 9.03-9.691 12.552-10.052 25.025-22.038 34.251-35.36 4.045-5.84 7.643-12.278 10.922-18.579 3.035-5.836 5.655-9.88 11.094-13.855z" id="path138"/><path class="st4" d="M160.91 260.285c3.528-2.606 6.87-4.146 10.7-4.881 1.895-.367 3.906-.54 6.079-.564 1.824-.014 3.039.056 4.238.296 1.18.23 2.324.618 3.948 1.235 13.086 5.012 23.355 17.624 17.431 36.85-6.884 22.244-28.852 41.523-56.262 50.27-8.25 2.633-16.193 3.949-23.522 3.954-.499 0-.998-.006-1.497-.019-5.912-.152-11.892-1.235-17.372-3.379-1.392-.544-2.76-1.21-3.963-2.057a15.781 15.781 0 0 1-2.388-2.05 11.518 11.518 0 0 1-2.05-2.979c-2.559-5.347 4.805-6.262 8.957-9.588 12.423-9.95 24.761-21.809 33.903-34.986 4.008-5.777 7.576-12.146 10.827-18.379 3.008-5.77 5.615-9.766 10.972-13.723z" id="path140"/><path class="st5" d="M160.793 260.82c3.513-2.623 6.813-4.231 10.631-5.017 1.89-.393 3.903-.594 6.078-.628 1.82-.029 3.042.041 4.25.273 1.197.23 2.352.613 3.964 1.228 13.026 5.023 23.117 17.558 17.222 36.59-6.875 22.068-28.748 41.224-55.856 49.876-8.189 2.613-16.071 3.92-23.345 3.927-.495 0-.99-.006-1.486-.018-5.874-.15-11.808-1.224-17.242-3.35-1.38-.54-2.734-1.193-3.912-2.037a15.727 15.727 0 0 1-2.332-2.034 11.354 11.354 0 0 1-1.99-2.941c-2.472-5.28 4.776-6.195 8.882-9.485 12.293-9.849 24.498-21.58 33.554-34.614 3.972-5.715 7.509-12.012 10.734-18.178 2.98-5.704 5.574-9.654 10.848-13.592z" id="path142"/><path class="st6" d="M160.675 261.355c3.5-2.64 6.758-4.316 10.564-5.152 1.885-.42 3.898-.645 6.075-.693 1.816-.04 3.047.024 4.264.25 1.214.227 2.38.607 3.979 1.222 12.966 5.034 22.878 17.492 17.014 36.328-6.867 21.893-28.644 40.927-55.45 49.483-8.129 2.593-15.95 3.891-23.17 3.9-.49 0-.982-.005-1.474-.018-5.836-.146-11.723-1.212-17.112-3.32-1.366-.535-2.71-1.176-3.86-2.017a15.682 15.682 0 0 1-2.278-2.017 11.124 11.124 0 0 1-1.932-2.905c-2.392-5.207 4.75-6.128 8.81-9.381 12.164-9.748 24.235-21.35 33.206-34.241 3.935-5.653 7.441-11.88 10.639-17.978 2.952-5.638 5.533-9.542 10.725-13.46z" id="path144"/><path class="st7" d="M160.557 261.89c3.485-2.658 6.703-4.401 10.497-5.288 1.88-.445 3.894-.695 6.073-.757 1.811-.052 3.05.006 4.277.229 1.23.223 2.408.597 3.994 1.213 12.916 5.019 22.64 17.426 16.805 36.067-6.858 21.719-28.54 40.63-55.044 49.089-8.067 2.574-15.83 3.863-22.992 3.874-.488 0-.975-.005-1.464-.018-5.798-.143-11.639-1.2-16.982-3.29-1.353-.53-2.684-1.16-3.81-1.996a15.642 15.642 0 0 1-2.221-2.001 10.896 10.896 0 0 1-1.873-2.868c-2.315-5.136 4.721-6.061 8.736-9.279 12.035-9.646 23.972-21.121 32.857-33.867 3.899-5.591 7.375-11.746 10.545-17.778 2.924-5.572 5.493-9.431 10.602-13.33z" id="path146"/><path class="st8" d="M160.44 262.426c3.47-2.676 6.647-4.487 10.429-5.424 1.875-.471 3.89-.746 6.07-.822 1.808-.064 3.055-.011 4.291.206 1.247.22 2.436.591 4.009 1.206 12.857 5.028 22.402 17.36 16.596 35.806-6.848 21.544-28.436 40.332-54.638 48.695-8.006 2.555-15.708 3.836-22.815 3.848-.484 0-.968-.005-1.453-.017-5.76-.141-11.554-1.189-16.852-3.262-1.34-.525-2.659-1.142-3.758-1.975a15.604 15.604 0 0 1-2.167-1.985 10.67 10.67 0 0 1-1.814-2.83c-2.236-5.064 4.694-5.994 8.663-9.176 11.906-9.545 23.71-20.892 32.509-33.495 3.862-5.528 7.307-11.613 10.45-17.578 2.897-5.505 5.452-9.32 10.48-13.197z" id="path148"/><path class="st9" d="M160.322 262.962c3.457-2.695 6.592-4.573 10.362-5.56 1.87-.498 3.886-.796 6.069-.887 1.802-.075 3.058-.029 4.303.184 1.264.216 2.463.585 4.024 1.199 12.798 5.035 22.163 17.294 16.388 35.545-6.84 21.368-28.332 40.034-54.233 48.3-7.944 2.536-15.586 3.808-22.638 3.821a53.3 53.3 0 0 1-1.441-.016c-5.722-.138-11.47-1.177-16.723-3.232-1.328-.52-2.633-1.124-3.706-1.955a15.572 15.572 0 0 1-2.112-1.968 10.447 10.447 0 0 1-1.756-2.794c-2.157-4.991 4.667-5.927 8.59-9.072 11.777-9.444 23.446-20.663 32.16-33.122 3.825-5.467 7.24-11.48 10.357-17.378 2.868-5.438 5.41-9.21 10.356-13.065z" id="path150"/><path class="st10" d="M160.204 263.497c3.443-2.713 6.538-4.658 10.295-5.696 1.865-.524 3.881-.846 6.066-.951 1.798-.087 3.063-.047 4.317.161 1.28.213 2.49.58 4.039 1.192 12.738 5.044 21.925 17.229 16.18 35.284-6.832 21.193-28.229 39.737-53.828 47.907-7.883 2.515-15.465 3.779-22.461 3.794-.477.001-.953-.004-1.43-.015-5.684-.136-11.386-1.166-16.592-3.204-1.316-.515-2.609-1.106-3.656-1.934a15.548 15.548 0 0 1-2.057-1.951 10.228 10.228 0 0 1-1.696-2.758c-2.08-4.919 4.639-5.86 8.516-8.969 11.648-9.342 23.183-20.434 31.812-32.748 3.788-5.405 7.173-11.347 10.262-17.178 2.84-5.372 5.368-9.1 10.233-12.934z" id="path152"/><path class="st11" d="M160.086 264.033c3.43-2.733 6.485-4.736 10.227-5.833a26.723 26.723 0 0 1 6.065-1.015c1.793-.099 3.066-.064 4.33.139 1.297.209 2.518.573 4.054 1.185 12.68 5.052 21.723 17.174 15.97 35.022-6.779 21.032-28.123 39.44-53.42 47.513-7.823 2.496-15.344 3.751-22.285 3.768-.473.001-.946-.004-1.42-.015-5.645-.133-11.3-1.154-16.461-3.174-1.303-.51-2.583-1.089-3.605-1.913a15.526 15.526 0 0 1-2.001-1.935c-.684-.797-1.223-1.717-1.638-2.721-2-4.847 4.612-5.793 8.443-8.866 11.518-9.241 22.92-20.205 31.463-32.376 3.752-5.342 7.106-11.213 10.169-16.977 2.812-5.306 5.325-8.991 10.11-12.802z" id="path154"/><path class="st12" d="M159.969 264.568c3.415-2.751 6.43-4.82 10.16-5.968a25.942 25.942 0 0 1 6.062-1.08c1.789-.11 3.07-.082 4.343.117 1.314.205 2.546.566 4.07 1.177 12.619 5.061 21.487 17.11 15.76 34.761-6.766 20.859-28.02 39.142-53.014 47.12-7.761 2.476-15.223 3.722-22.108 3.741a55.08 55.08 0 0 1-1.408-.015c-5.608-.13-11.217-1.142-16.332-3.145-1.29-.505-2.557-1.07-3.553-1.892a15.51 15.51 0 0 1-1.947-1.919c-.663-.785-1.18-1.694-1.579-2.684-1.921-4.774 4.585-5.725 8.37-8.762 11.39-9.14 22.657-19.976 31.115-32.003 3.715-5.28 7.039-11.08 10.074-16.777 2.785-5.24 5.283-8.883 9.987-12.671z" id="path156"/><path class="st13" d="M159.85 265.103c3.402-2.77 6.376-4.905 10.093-6.104a25.252 25.252 0 0 1 6.06-1.144c1.785-.122 3.075-.1 4.356.094 1.332.202 2.574.56 4.085 1.17 12.56 5.07 21.253 17.045 15.553 34.5-6.754 20.686-27.916 38.845-52.61 46.726-7.699 2.457-15.1 3.694-21.93 3.715-.466.001-.931-.003-1.397-.014-5.57-.128-11.132-1.131-16.202-3.116-1.277-.5-2.531-1.053-3.502-1.872a15.499 15.499 0 0 1-1.891-1.902c-.643-.774-1.138-1.672-1.52-2.647-1.844-4.702 4.556-5.658 8.296-8.66 11.26-9.038 22.394-19.746 30.766-31.63 3.68-5.218 6.972-10.947 9.98-16.576 2.757-5.174 5.241-8.775 9.864-12.54z" id="path158"/><path class="st14" d="M159.733 265.639c3.387-2.79 6.32-4.99 10.025-6.24a24.61 24.61 0 0 1 6.058-1.21c1.78-.132 3.078-.116 4.37.073 1.348.197 2.6.554 4.1 1.163 12.5 5.079 21.016 16.98 15.344 34.239-6.742 20.511-27.812 38.547-52.204 46.331-7.638 2.438-14.98 3.666-21.754 3.689a52.96 52.96 0 0 1-1.386-.014c-5.531-.125-11.048-1.119-16.072-3.086-1.265-.496-2.505-1.035-3.45-1.852a15.494 15.494 0 0 1-1.837-1.885c-.622-.763-1.095-1.65-1.461-2.61-1.765-4.63 4.53-5.592 8.223-8.557 11.13-8.937 22.131-19.517 30.418-31.256 3.642-5.157 6.905-10.815 9.886-16.377 2.729-5.108 5.197-8.667 9.74-12.408z" id="path160"/><path class="st15" d="M159.615 266.174c3.373-2.809 6.265-5.075 9.958-6.375a24.009 24.009 0 0 1 6.056-1.274c1.775-.144 3.082-.135 4.382.05 1.365.193 2.629.547 4.115 1.155 12.442 5.088 20.782 16.916 15.136 33.978-6.73 20.338-27.708 38.25-51.798 45.938-7.577 2.417-14.858 3.638-21.577 3.662a57.35 57.35 0 0 1-1.375-.013c-5.493-.122-10.963-1.108-15.942-3.058-1.252-.49-2.479-1.016-3.399-1.83a15.495 15.495 0 0 1-1.782-1.87c-.601-.75-1.051-1.627-1.402-2.573-1.686-4.557 4.502-5.524 8.15-8.453 11.002-8.836 21.868-19.288 30.07-30.884 3.605-5.094 6.837-10.681 9.791-16.177 2.701-5.041 5.155-8.56 9.617-12.276z" id="path162"/><path class="st16" d="M159.498 266.71c3.358-2.83 6.21-5.16 9.89-6.512a23.447 23.447 0 0 1 6.053-1.338c1.772-.156 3.087-.153 4.396.027 1.382.19 2.656.542 4.13 1.149 12.383 5.097 20.546 16.85 14.927 33.717-6.717 20.163-27.604 37.951-51.391 45.543-7.516 2.398-14.738 3.61-21.401 3.635a52.05 52.05 0 0 1-1.363-.012c-5.456-.12-10.88-1.096-15.812-3.028-1.24-.485-2.454-.998-3.349-1.81a15.496 15.496 0 0 1-1.726-1.853c-.581-.74-1.01-1.605-1.343-2.537-1.608-4.483 4.474-5.456 8.076-8.35 10.873-8.734 21.605-19.059 29.721-30.51 3.569-5.033 6.77-10.549 9.698-15.977 2.673-4.975 5.11-8.453 9.494-12.144z" id="path164"/><path class="st17" d="M159.38 267.245c3.344-2.849 6.155-5.245 9.823-6.647a22.918 22.918 0 0 1 6.051-1.403c1.767-.167 3.09-.17 4.409.005 1.4.186 2.684.535 4.145 1.141 12.323 5.106 20.31 16.786 14.719 33.456-6.705 19.99-27.5 37.654-50.986 45.15-7.455 2.378-14.616 3.58-21.225 3.608-.45.002-.9-.002-1.351-.012-5.418-.116-10.795-1.084-15.682-2.998-1.227-.48-2.427-.98-3.297-1.79a15.503 15.503 0 0 1-1.672-1.836c-.56-.729-.966-1.583-1.284-2.5-1.53-4.411 4.447-5.39 8.004-8.247 10.742-8.633 21.341-18.83 29.372-30.137 3.532-4.97 6.703-10.416 9.603-15.777 2.645-4.909 5.067-8.347 9.37-12.013z" id="path166"/><path class="st18" d="M159.262 267.78c3.33-2.869 6.1-5.33 9.756-6.783a22.422 22.422 0 0 1 6.049-1.467c1.762-.178 3.094-.189 4.422-.018 1.416.183 2.711.53 4.16 1.134 12.264 5.116 20.074 16.721 14.51 33.195-6.693 19.816-27.396 37.356-50.58 44.756-7.394 2.359-14.495 3.553-21.047 3.582a51.41 51.41 0 0 1-1.341-.011c-5.38-.114-10.71-1.073-15.552-2.97-1.214-.475-2.4-.96-3.246-1.769a15.518 15.518 0 0 1-1.616-1.82c-.54-.717-.924-1.56-1.226-2.463-1.45-4.338 4.42-5.322 7.93-8.143 10.614-8.533 21.08-18.601 29.024-29.765 3.496-4.908 6.636-10.282 9.51-15.576 2.617-4.843 5.022-8.241 9.247-11.882z" id="path168"/><path class="st19" d="M159.144 268.316c3.316-2.89 6.046-5.415 9.689-6.92a21.956 21.956 0 0 1 6.047-1.531c1.757-.19 3.098-.207 4.435-.04 1.433.179 2.739.524 4.175 1.127 12.205 5.125 19.838 16.655 14.301 32.933-6.68 19.642-27.292 37.06-50.174 44.362-7.332 2.34-14.373 3.525-20.87 3.556-.444.002-.887-.001-1.33-.01-5.341-.112-10.626-1.062-15.422-2.941-1.201-.47-2.374-.941-3.194-1.748a15.528 15.528 0 0 1-1.562-1.804c-.52-.706-.88-1.537-1.166-2.426-1.373-4.265 4.392-5.255 7.857-8.04 10.484-8.432 20.815-18.372 28.675-29.392 3.459-4.846 6.569-10.15 9.415-15.376 2.59-4.777 4.978-8.137 9.124-11.75z" id="path170"/><path class="st20" d="M159.026 268.851c3.302-2.91 5.991-5.5 9.622-7.055a21.52 21.52 0 0 1 6.044-1.596c1.754-.2 3.103-.225 4.449-.062 1.45.174 2.766.517 4.19 1.12 12.145 5.133 19.602 16.59 14.093 32.672-6.67 19.468-27.188 36.76-49.769 43.968-7.27 2.32-14.252 3.496-20.694 3.529-.439.002-.878-.001-1.318-.01-5.303-.109-10.541-1.05-15.292-2.912-1.189-.465-2.347-.921-3.143-1.727a15.547 15.547 0 0 1-1.506-1.787c-.5-.695-.838-1.515-1.108-2.39-1.294-4.191 4.364-5.188 7.784-7.937 10.355-8.33 20.552-18.142 28.326-29.018 3.423-4.785 6.502-10.017 9.321-15.176 2.562-4.71 4.933-8.032 9.001-11.619z" id="path172"/><path class="st21" d="M158.909 269.387c3.286-2.932 5.936-5.585 9.553-7.191a21.11 21.11 0 0 1 6.043-1.661c1.749-.212 3.107-.242 4.461-.085 1.467.17 2.794.512 4.207 1.113 12.085 5.143 19.365 16.525 13.883 32.411-6.658 19.294-27.084 36.464-49.362 43.574-7.21 2.3-14.131 3.469-20.518 3.503-.435.002-.871-.001-1.307-.01-5.265-.106-10.457-1.038-15.162-2.882-1.176-.46-2.32-.902-3.092-1.707a15.56 15.56 0 0 1-1.45-1.77c-.48-.685-.796-1.493-1.05-2.354-1.215-4.117 4.337-5.12 7.71-7.833 10.227-8.229 20.29-17.914 27.979-28.645 3.386-4.723 6.434-9.884 9.226-14.977 2.534-4.643 4.889-7.927 8.879-11.486z" id="path174"/><path class="st22" d="M158.79 269.922c3.273-2.953 5.882-5.67 9.487-7.327a20.724 20.724 0 0 1 6.04-1.725c1.745-.223 3.111-.26 4.475-.107a14.5 14.5 0 0 1 4.222 1.105c12.025 5.153 19.128 16.46 13.674 32.15-6.646 19.12-26.98 36.166-48.956 43.18-7.149 2.281-14.01 3.44-20.34 3.477-.433.002-.865 0-1.297-.01-5.227-.103-10.372-1.026-15.031-2.852-1.164-.456-2.294-.883-3.041-1.687a15.578 15.578 0 0 1-1.396-1.754c-.46-.673-.753-1.47-.99-2.316-1.138-4.044 4.31-5.053 7.637-7.73 10.097-8.128 20.026-17.685 27.629-28.273 3.35-4.66 6.368-9.75 9.133-14.776 2.506-4.577 4.843-7.824 8.755-11.355z" id="path176"/><path class="st23" d="M158.673 270.458c3.257-2.975 5.826-5.756 9.42-7.463a20.36 20.36 0 0 1 6.037-1.79c1.74-.234 3.115-.279 4.488-.13 1.501.163 2.85.5 4.237 1.098 11.966 5.164 18.892 16.396 13.466 31.89-6.635 18.946-26.876 35.868-48.551 42.786-7.088 2.261-13.888 3.412-20.164 3.45-.428.002-.856 0-1.285-.01-5.189-.1-10.287-1.014-14.901-2.823-1.151-.45-2.266-.862-2.99-1.665-.477-.53-.965-1.17-1.34-1.738-.44-.663-.71-1.447-.932-2.28-1.06-3.97 4.282-4.986 7.564-7.627 9.967-8.026 19.763-17.455 27.28-27.899 3.313-4.599 6.301-9.617 9.04-14.576 2.477-4.511 4.796-7.721 8.631-11.223z" id="path178"/><path class="st24" d="M158.555 270.993c3.243-2.996 5.772-5.84 9.352-7.599a20.02 20.02 0 0 1 6.036-1.854c1.735-.245 3.119-.297 4.501-.152 1.518.159 2.877.493 4.252 1.09 11.906 5.174 18.655 16.331 13.257 31.629-6.624 18.772-26.772 35.57-48.145 42.392-7.026 2.242-13.767 3.384-19.987 3.423-.424.003-.849 0-1.273-.008-5.151-.098-10.204-1.003-14.772-2.794-1.138-.446-2.239-.842-2.939-1.645a15.586 15.586 0 0 1-1.285-1.721c-.42-.652-.667-1.425-.873-2.243-.98-3.897 4.255-4.919 7.49-7.524 9.84-7.925 19.501-17.226 26.933-27.526 3.276-4.537 6.234-9.485 8.945-14.376 2.45-4.445 4.75-7.619 8.508-11.092z" id="path180"/><path class="st25" d="M158.438 271.528c3.227-3.018 5.716-5.926 9.284-7.734a19.698 19.698 0 0 1 6.034-1.919c1.73-.256 3.123-.315 4.514-.174 1.535.154 2.904.487 4.267 1.083 11.846 5.183 18.418 16.265 13.049 31.367-6.613 18.598-26.668 35.273-47.74 41.998-6.965 2.223-13.645 3.356-19.81 3.397-.42.003-.842 0-1.262-.007-5.113-.095-10.12-.992-14.642-2.765-1.125-.442-2.211-.822-2.887-1.625a15.581 15.581 0 0 1-1.23-1.704c-.4-.642-.625-1.403-.815-2.207-.902-3.823 4.228-4.851 7.418-7.42 9.709-7.824 19.237-16.997 26.584-27.154 3.24-4.474 6.166-9.351 8.85-14.175 2.422-4.38 4.704-7.517 8.386-10.96z" id="path182"/><path class="st26" d="M158.32 272.064c3.212-3.041 5.661-6.011 9.217-7.87a19.395 19.395 0 0 1 6.031-1.984c1.727-.267 3.128-.333 4.528-.197 1.551.151 2.931.482 4.282 1.077 11.787 5.193 18.181 16.2 12.84 31.106-6.602 18.423-26.564 34.975-47.333 41.604-6.904 2.203-13.525 3.327-19.634 3.37-.417.003-.834 0-1.251-.007-5.075-.092-10.035-.98-14.512-2.736-1.113-.436-2.184-.8-2.836-1.604a15.552 15.552 0 0 1-1.175-1.688c-.38-.63-.582-1.38-.755-2.17-.825-3.748 4.2-4.784 7.344-7.317 9.58-7.722 18.974-16.767 26.235-26.78 3.203-4.412 6.1-9.218 8.756-13.975 2.395-4.313 4.658-7.416 8.263-10.83z" id="path184"/><path class="st27" d="M158.202 272.6c3.196-3.065 5.607-6.097 9.15-8.007a19.11 19.11 0 0 1 6.03-2.048c1.721-.277 3.13-.35 4.54-.22 1.568.148 2.959.476 4.297 1.07 11.727 5.204 17.944 16.135 12.631 30.845-6.591 18.25-26.46 34.678-46.927 41.21-6.843 2.183-13.403 3.3-19.457 3.344-.413.003-.827 0-1.24-.007-5.037-.09-9.95-.968-14.382-2.706-1.1-.432-2.156-.78-2.784-1.583a15.513 15.513 0 0 1-1.121-1.672c-.359-.62-.538-1.357-.696-2.133-.746-3.675 4.172-4.717 7.271-7.214 9.45-7.621 18.711-16.539 25.887-26.407 3.166-4.35 6.032-9.085 8.662-13.776 2.366-4.246 4.61-7.314 8.14-10.697z" id="path186"/><path class="st28" d="M158.084 273.135c3.18-3.087 5.552-6.182 9.083-8.142a18.842 18.842 0 0 1 6.027-2.113c1.717-.288 3.135-.369 4.554-.241 1.585.142 2.986.469 4.312 1.061 11.667 5.214 17.707 16.07 12.423 30.584-6.581 18.076-26.356 34.38-46.522 40.816-6.782 2.164-13.282 3.272-19.28 3.318-.41.003-.82.001-1.229-.006-4.999-.087-9.866-.957-14.252-2.677-1.087-.427-2.128-.758-2.733-1.563-.376-.5-.78-1.14-1.066-1.655-.338-.61-.495-1.334-.637-2.096-.668-3.6 4.145-4.65 7.198-7.112 9.322-7.52 18.448-16.309 25.538-26.033 3.13-4.289 5.965-8.953 8.568-13.576 2.339-4.18 4.563-7.213 8.016-10.565z" id="path188"/><path class="st29" d="M157.967 273.67c3.164-3.11 5.496-6.267 9.015-8.278a18.59 18.59 0 0 1 6.024-2.177c1.714-.299 3.14-.387 4.567-.264 1.603.138 3.015.464 4.328 1.055 11.607 5.224 17.47 16.004 12.214 30.322-6.57 17.902-26.252 34.083-46.116 40.423-6.72 2.144-13.16 3.243-19.103 3.29-.406.004-.812.002-1.218-.005-4.96-.084-9.781-.945-14.121-2.648-1.075-.421-2.101-.735-2.683-1.542a15.357 15.357 0 0 1-1.01-1.638c-.319-.6-.453-1.312-.578-2.06-.591-3.526 4.117-4.583 7.124-7.008 9.192-7.418 18.185-16.08 25.19-25.66 3.093-4.227 5.898-8.82 8.473-13.376 2.311-4.114 4.515-7.113 7.894-10.434z" id="path190"/><path class="st30" d="M157.849 274.206c3.148-3.135 5.441-6.353 8.948-8.414a18.353 18.353 0 0 1 6.022-2.242c1.709-.31 3.144-.405 4.58-.286 1.62.134 3.042.457 4.343 1.047 11.547 5.235 17.232 15.939 12.005 30.062-6.56 17.727-26.148 33.785-45.71 40.028-6.659 2.125-13.039 3.215-18.926 3.265a46.93 46.93 0 0 1-1.207-.006c-4.922-.08-9.696-.933-13.991-2.618-1.062-.417-2.073-.713-2.631-1.522a15.227 15.227 0 0 1-.956-1.622c-.298-.59-.41-1.288-.519-2.022-.513-3.451 4.09-4.516 7.051-6.905 9.063-7.317 17.922-15.851 24.841-25.288 3.057-4.165 5.831-8.686 8.38-13.175 2.283-4.048 4.466-7.014 7.77-10.302z" id="path192"/><path class="st30" d="M157.731 274.741c3.132-3.158 5.386-6.438 8.88-8.55a18.13 18.13 0 0 1 6.02-2.306c1.705-.32 3.148-.423 4.594-.309 1.637.13 3.07.452 4.358 1.04 11.487 5.247 16.994 15.874 11.797 29.801-6.55 17.553-26.044 33.488-45.304 39.635-6.598 2.105-12.918 3.186-18.75 3.237-.399.004-.797.003-1.195-.004-4.885-.079-9.613-.922-13.862-2.59-1.05-.411-2.196-.608-2.58-1.5-.395-.416-.668-1.123-.9-1.606-.279-.58-.368-1.266-.46-1.986-.436-3.376 4.062-4.448 6.977-6.802 8.934-7.215 17.66-15.621 24.493-24.914 3.02-4.103 5.764-8.554 8.285-12.975 2.255-3.982 4.418-6.915 7.647-10.171z" id="path194"/><path class="st31" d="M157.613 275.276c3.116-3.182 5.332-6.524 8.813-8.685a17.92 17.92 0 0 1 6.019-2.37c1.7-.332 3.151-.443 4.606-.332 1.653.126 3.097.446 4.373 1.033 11.427 5.257 16.756 15.808 11.588 29.54-6.54 17.377-25.94 33.19-44.898 39.24-6.537 2.086-12.797 3.158-18.573 3.211-.395.004-.79.003-1.184-.004-4.847-.076-9.528-.91-13.732-2.56-1.037-.407-2.175-.586-2.528-1.48-.378-.41-.632-1.118-.846-1.59-.259-.57-.325-1.242-.401-1.948-.359-3.301 4.035-4.382 6.904-6.7 8.805-7.113 17.396-15.391 24.144-24.54 2.984-4.041 5.697-8.42 8.192-12.775 2.227-3.916 4.368-6.816 7.523-10.04z" id="path196"/><path class="st32" d="M157.496 275.812c3.098-3.208 5.276-6.61 8.745-8.822a17.723 17.723 0 0 1 6.016-2.435c1.696-.342 3.156-.46 4.62-.353 1.67.121 3.124.44 4.388 1.025 11.367 5.268 16.518 15.743 11.38 29.279-6.531 17.203-25.837 32.892-44.493 38.846-6.475 2.066-12.675 3.13-18.396 3.185-.391.004-.783.003-1.173-.003-4.809-.074-9.444-.899-13.602-2.531-1.024-.402-2.154-.565-2.477-1.46-.36-.402-.594-1.112-.79-1.573-.24-.56-.283-1.22-.343-1.912-.281-3.226 4.007-4.314 6.831-6.595 8.676-7.013 17.133-15.164 23.796-24.169 2.947-3.978 5.63-8.287 8.097-12.575 2.2-3.848 4.319-6.717 7.4-9.907z" id="path198"/><path class="st33" d="M157.378 276.347c3.08-3.232 5.22-6.695 8.678-8.957a17.538 17.538 0 0 1 6.014-2.5c1.69-.352 3.16-.478 4.633-.376 1.687.118 3.151.434 4.403 1.019 11.307 5.279 16.28 15.677 11.17 29.017-6.52 17.029-25.731 32.595-44.086 38.453-6.414 2.046-12.554 3.102-18.219 3.158-.388.004-.775.003-1.162-.003-4.77-.07-9.36-.887-13.472-2.502-1.011-.397-2.132-.543-2.426-1.439-.342-.395-.557-1.107-.735-1.556-.219-.552-.24-1.197-.284-1.875-.204-3.15 3.98-4.247 6.758-6.493 8.547-6.911 16.87-14.934 23.447-23.795 2.91-3.917 5.563-8.154 8.003-12.375 2.172-3.782 4.27-6.62 7.278-9.776z" id="path200"/><path class="st34" d="M157.26 276.883c3.063-3.259 5.166-6.781 8.611-9.094a17.365 17.365 0 0 1 6.012-2.564c1.686-.363 3.164-.496 4.646-.398 1.704.113 3.179.428 4.418 1.011 11.247 5.29 16.041 15.611 10.962 28.756-6.512 16.855-25.628 32.297-43.68 38.059-6.354 2.027-12.433 3.074-18.043 3.132-.384.004-.768.003-1.15-.003-4.733-.067-9.276-.875-13.342-2.472-1-.392-2.112-.521-2.375-1.418-.325-.39-.52-1.103-.68-1.54-.2-.543-.198-1.174-.225-1.839-.128-3.074 3.952-4.18 6.684-6.39 8.417-6.81 16.607-14.704 23.099-23.421 2.873-3.855 5.495-8.022 7.909-12.175 2.143-3.716 4.218-6.522 7.154-9.644z" id="path202"/><path class="st35" d="M157.142 277.418c3.045-3.284 5.111-6.866 8.544-9.23a17.201 17.201 0 0 1 6.01-2.628c1.681-.373 3.167-.515 4.659-.42 1.72.108 3.206.422 4.433 1.004 11.187 5.302 15.802 15.545 10.753 28.494-6.503 16.68-25.523 32-43.274 37.665-6.292 2.008-12.312 3.046-17.866 3.106-.38.004-.76.003-1.14-.002-4.694-.065-9.19-.864-13.211-2.443-.986-.388-2.09-.5-2.324-1.398-.307-.382-.482-1.098-.625-1.523-.179-.534-.155-1.151-.166-1.802-.052-2.999 3.925-4.113 6.611-6.286 8.288-6.71 16.344-14.476 22.75-23.05 2.837-3.792 5.429-7.888 7.815-11.974 2.116-3.65 4.168-6.425 7.031-9.513z" id="path204"/><path class="st36" d="M157.024 277.954c3.027-3.311 5.056-6.952 8.477-9.366a17.048 17.048 0 0 1 6.007-2.693c1.678-.384 3.172-.533 4.672-.443 1.739.104 3.234.417 4.45.997 11.125 5.314 15.563 15.48 10.544 28.234-6.495 16.505-25.42 31.702-42.87 37.27-6.23 1.989-12.19 3.018-17.688 3.08-.377.004-.753.003-1.129-.002-4.656-.062-9.105-.852-13.081-2.414-.973-.382-2.07-.477-2.273-1.377-.29-.375-.444-1.093-.57-1.507-.158-.525-.112-1.128-.107-1.765.025-2.922 3.898-4.046 6.538-6.183 8.159-6.608 16.081-14.246 22.402-22.676 2.8-3.73 5.36-7.755 7.72-11.774 2.088-3.584 4.117-6.328 6.908-9.381z" id="path206"/><path class="st37" d="M156.907 278.489c3.007-3.337 5-7.038 8.409-9.501a16.906 16.906 0 0 1 6.005-2.758c1.673-.394 3.176-.551 4.685-.465 1.756.1 3.262.41 4.464.99 11.066 5.325 15.324 15.413 10.336 27.972-6.486 16.33-25.316 31.404-42.463 36.877-6.17 1.969-12.069 2.99-17.512 3.053-.373.004-.746.004-1.117-.001-4.619-.06-9.022-.84-12.952-2.385-.96-.378-2.048-.456-2.221-1.357-.272-.368-.407-1.088-.515-1.49-.139-.517-.07-1.105-.048-1.728.1-2.847 3.87-3.979 6.465-6.08 8.029-6.507 15.817-14.017 22.052-22.303 2.764-3.669 5.294-7.622 7.627-11.574 2.06-3.518 4.065-6.232 6.785-9.25z" id="path208"/><path class="st38" d="M156.789 279.024c2.988-3.364 4.945-7.123 8.342-9.636a16.772 16.772 0 0 1 6.002-2.823c1.67-.405 3.18-.57 4.7-.488 1.771.096 3.288.405 4.478.983 11.005 5.337 15.085 15.348 10.127 27.711-6.478 16.155-25.211 31.107-42.057 36.483-6.108 1.95-11.948 2.961-17.335 3.026-.37.005-.738.005-1.106 0-4.58-.057-8.937-.829-12.822-2.356-.948-.372-2.026-.434-2.17-1.335-.254-.362-.369-1.085-.46-1.474-.118-.51-.028-1.082.01-1.692.176-2.77 3.844-3.911 6.393-5.976 7.9-6.406 15.554-13.789 21.704-21.93 2.727-3.607 5.227-7.49 7.532-11.374 2.032-3.452 4.014-6.136 6.662-9.119z" id="path210"/><path class="st39" d="M156.671 279.56c2.968-3.392 4.89-7.21 8.275-9.773a16.648 16.648 0 0 1 6-2.887c1.665-.415 3.185-.588 4.712-.51 1.79.091 3.316.4 4.494.975 10.945 5.35 14.846 15.282 9.919 27.45-6.47 15.98-25.108 30.81-41.651 36.09-6.048 1.93-11.827 2.932-17.159 3-.366.004-.73.004-1.095 0-4.542-.055-8.853-.818-12.692-2.327-.935-.368-2.005-.412-2.118-1.315-.237-.355-.331-1.08-.405-1.458-.098-.5.014-1.058.07-1.655.249-2.693 3.814-3.844 6.318-5.873 7.77-6.304 15.291-13.559 21.355-21.557 2.691-3.544 5.16-7.356 7.439-11.174 2.003-3.385 3.96-6.04 6.538-8.986z" id="path212"/><path class="st40" d="M156.553 280.095c2.948-3.42 4.835-7.295 8.207-9.908a16.531 16.531 0 0 1 5.999-2.952c1.66-.425 3.188-.606 4.725-.532 1.806.086 3.343.393 4.51.968 10.883 5.361 14.605 15.215 9.71 27.189-6.463 15.805-25.005 30.511-41.246 35.695-5.986 1.91-11.706 2.905-16.982 2.973a43.12 43.12 0 0 1-1.084 0c-4.504-.05-8.768-.805-12.561-2.296-.923-.363-1.985-.39-2.068-1.295-.219-.349-.292-1.076-.35-1.44-.077-.495.056-1.036.128-1.619.324-2.617 3.788-3.777 6.246-5.77 7.641-6.203 15.028-13.33 21.007-21.184 2.654-3.483 5.093-7.223 7.344-10.974 1.976-3.319 3.908-5.945 6.415-8.855z" id="path214"/><path class="st41" d="M156.436 280.63c2.926-3.448 4.78-7.38 8.14-10.044a16.423 16.423 0 0 1 5.996-3.016c1.656-.436 3.192-.625 4.738-.555 1.823.083 3.37.388 4.524.961 10.823 5.374 14.366 15.15 9.502 26.928-6.456 15.63-24.9 30.214-40.84 35.302-5.925 1.89-11.584 2.876-16.805 2.946-.358.005-.716.005-1.073.001-4.466-.049-8.684-.794-12.431-2.268-.91-.357-1.963-.368-2.017-1.274-.201-.342-.253-1.073-.294-1.424-.057-.487.098-1.012.187-1.582.397-2.54 3.76-3.71 6.172-5.666 7.512-6.102 14.765-13.101 20.658-20.811 2.618-3.42 5.026-7.09 7.25-10.774 1.948-3.253 3.855-5.85 6.293-8.723z" id="path216"/><path class="st42" d="M156.318 281.166c2.904-3.478 4.724-7.466 8.072-10.18a16.323 16.323 0 0 1 5.994-3.08c1.652-.447 3.197-.644 4.752-.578 1.84.078 3.398.382 4.54.953 10.762 5.387 14.125 15.084 9.292 26.667-6.448 15.455-24.796 29.917-40.434 34.908-5.863 1.87-11.463 2.848-16.628 2.92-.355.005-.709.005-1.062.002-4.428-.047-8.599-.783-12.301-2.239-.897-.353-1.942-.347-1.965-1.254-.184-.335-.215-1.069-.24-1.407-.035-.48.14-.989.246-1.545.47-2.463 3.733-3.643 6.099-5.564 7.383-6 14.502-12.871 20.31-20.438 2.58-3.358 4.958-6.957 7.156-10.573 1.92-3.187 3.8-5.756 6.169-8.592z" id="path218"/><path class="st43" d="M156.2 281.702c2.882-3.508 4.669-7.553 8.005-10.317a16.23 16.23 0 0 1 5.992-3.144c1.647-.457 3.2-.663 4.765-.6 1.857.073 3.425.376 4.555.946 10.7 5.4 13.885 15.017 9.083 26.406-6.441 15.278-24.692 29.619-40.028 34.513-5.802 1.852-11.341 2.82-16.45 2.894-.352.005-.702.006-1.052.002-4.39-.043-8.514-.77-12.171-2.21-.885-.347-1.92-.325-1.914-1.232-.166-.329-.175-1.066-.184-1.392-.013-.472.181-.965.304-1.508.543-2.386 3.706-3.575 6.026-5.46 7.254-5.899 14.239-12.643 19.961-20.065 2.545-3.296 4.892-6.824 7.062-10.373 1.892-3.12 3.747-5.662 6.046-8.46z" id="path220"/><path class="st44" d="M156.082 282.237c2.859-3.538 4.614-7.638 7.938-10.452a16.144 16.144 0 0 1 5.99-3.21c1.643-.466 3.204-.68 4.777-.622 1.874.07 3.454.37 4.57.94 10.64 5.412 13.645 14.95 8.876 26.144-6.435 15.103-24.588 29.321-39.622 34.12-5.742 1.831-11.22 2.791-16.275 2.867a40.07 40.07 0 0 1-1.04.002c-4.351-.04-8.43-.759-12.04-2.18-.873-.343-1.9-.303-1.863-1.212-.149-.322-.136-1.063-.13-1.375.01-.466.223-.942.364-1.471.615-2.31 3.678-3.508 5.952-5.357 7.125-5.798 13.976-12.414 19.613-19.692 2.508-3.235 4.824-6.691 6.967-10.173 1.865-3.054 3.692-5.568 5.923-8.329z" id="path222"/><path class="st45" d="M155.965 282.772c2.834-3.568 4.558-7.723 7.87-10.588a16.065 16.065 0 0 1 5.987-3.273c1.64-.478 3.21-.7 4.791-.645 1.891.064 3.48.365 4.586.932 10.578 5.426 13.404 14.883 8.666 25.883-6.429 14.927-24.484 29.024-39.216 33.726-5.68 1.812-11.1 2.763-16.098 2.84-.344.006-.687.007-1.028.004-4.314-.038-8.346-.748-11.912-2.151-.859-.338-1.878-.282-1.811-1.192-.13-.315-.095-1.06-.074-1.358.032-.46.264-.92.422-1.435.686-2.234 3.65-3.44 5.879-5.254 6.995-5.696 13.713-12.184 19.264-19.319 2.472-3.172 4.758-6.557 6.874-9.973 1.836-2.987 3.637-5.474 5.8-8.197z" id="path224"/><path class="st46" d="M155.847 283.308c2.81-3.6 4.497-7.816 7.803-10.724a15.924 15.924 0 0 1 5.985-3.338c1.635-.488 3.213-.718 4.804-.668 1.908.06 3.508.36 4.6.925 10.518 5.44 13.164 14.817 8.458 25.623-6.423 14.75-24.38 28.726-38.81 33.331-5.619 1.793-10.978 2.736-15.92 2.814-.34.006-.68.007-1.018.004-4.276-.035-8.262-.736-11.782-2.122-.846-.333-1.856-.26-1.76-1.17-.113-.309-.054-1.057-.019-1.342.056-.454.305-.896.481-1.398.757-2.158 3.623-3.374 5.806-5.151 6.866-5.595 13.45-11.955 18.916-18.946 2.434-3.11 4.69-6.425 6.78-9.773 1.808-2.921 3.58-5.38 5.676-8.065z" id="path226"/><path class="st47" d="M155.729 283.843c2.784-3.631 4.442-7.901 7.736-10.86a15.863 15.863 0 0 1 5.983-3.402c1.63-.498 3.217-.736 4.817-.69 1.925.056 3.535.354 4.616.917 10.456 5.453 12.921 14.75 8.249 25.362-6.418 14.575-24.276 28.428-38.405 32.938-5.557 1.773-10.856 2.707-15.744 2.787-.336.006-.672.007-1.006.004-4.238-.032-8.177-.724-11.651-2.092-.834-.328-1.836-.238-1.71-1.15-.095-.302-.012-1.054.037-1.326.08-.446.346-.873.54-1.36.827-2.083 3.595-3.307 5.732-5.048 6.737-5.494 13.187-11.726 18.567-18.573 2.398-3.048 4.623-6.292 6.686-9.573 1.78-2.855 3.525-5.287 5.553-7.934z" id="path228"/><path class="st48" d="M155.611 284.379c2.757-3.664 4.387-7.987 7.669-10.996a15.809 15.809 0 0 1 5.98-3.467c1.627-.508 3.222-.755 4.83-.713 1.943.052 3.563.349 4.632.91 10.394 5.467 12.68 14.684 8.04 25.101-6.413 14.398-24.172 28.131-37.999 32.544-5.496 1.754-10.735 2.679-15.567 2.761-.333.006-.664.007-.995.005-4.2-.03-8.093-.713-11.521-2.063-.821-.324-1.815-.217-1.658-1.13-.078-.295.029-1.05.091-1.309.106-.44.387-.85.599-1.324.896-2.007 3.568-3.24 5.659-4.945 6.608-5.392 12.924-11.496 18.219-18.2 2.361-2.986 4.556-6.158 6.591-9.372 1.753-2.79 3.468-5.195 5.43-7.802z" id="path230"/><path class="st49" d="M155.494 284.914c2.728-3.697 4.33-8.072 7.6-11.132a15.76 15.76 0 0 1 5.98-3.531c1.621-.518 3.224-.773 4.843-.735 1.959.047 3.59.343 4.646.903 10.333 5.48 12.438 14.616 7.831 24.84-6.408 14.221-24.067 27.833-37.592 32.15-5.435 1.734-10.614 2.65-15.39 2.734-.33.006-.658.008-.985.005-4.161-.027-8.008-.7-11.391-2.034-.809-.318-1.793-.194-1.606-1.109-.06-.288.07-1.046.146-1.292.132-.432.428-.828.657-1.288.966-1.932 3.541-3.172 5.586-4.841 6.479-5.291 12.66-11.268 17.87-17.827 2.325-2.924 4.49-6.025 6.497-9.172 1.725-2.723 3.411-5.102 5.308-7.67z" id="path232"/><path class="st50" d="M155.376 285.45c2.7-3.73 4.276-8.158 7.533-11.268a15.717 15.717 0 0 1 5.977-3.596c1.618-.528 3.23-.792 4.857-.757 1.975.042 3.617.337 4.66.896 10.272 5.494 12.197 14.548 7.624 24.578-6.404 14.044-23.964 27.535-37.187 31.756-5.374 1.714-10.493 2.622-15.214 2.708-.325.006-.65.008-.973.006-4.123-.025-7.923-.69-11.26-2.005-.797-.314-1.773-.173-1.556-1.089-.043-.28.113-1.042.201-1.276.16-.423.469-.804.717-1.25 1.033-1.859 3.513-3.105 5.512-4.739 6.35-5.19 12.398-11.038 17.522-17.453 2.288-2.862 4.422-5.893 6.403-8.972 1.697-2.657 3.353-5.01 5.184-7.54z" id="path234"/><path class="st51" d="M155.258 285.985c2.669-3.765 4.221-8.243 7.466-11.403a15.68 15.68 0 0 1 5.975-3.661c1.613-.538 3.233-.81 4.87-.78 1.992.038 3.644.332 4.676.889 10.209 5.51 11.954 14.481 7.414 24.317-6.4 13.868-23.86 27.238-36.781 31.362-5.313 1.695-10.371 2.594-15.037 2.682-.322.006-.642.008-.962.006-4.085-.022-7.839-.678-11.13-1.975-.784-.31-1.751-.151-1.505-1.068-.025-.275.156-1.038.257-1.26.187-.414.509-.782.775-1.214 1.102-1.785 3.486-3.038 5.44-4.635 6.22-5.088 12.134-10.809 17.172-17.08 2.252-2.8 4.355-5.76 6.31-8.773 1.668-2.59 3.294-4.916 5.06-7.407z" id="path236"/><path class="st52" d="M155.14 286.52c2.637-3.8 4.166-8.328 7.4-11.539a15.646 15.646 0 0 1 5.971-3.725c1.61-.548 3.238-.832 4.883-.802 2.01.029 3.672.326 4.692.881 10.147 5.524 11.71 14.414 7.205 24.056-6.397 13.69-23.755 26.94-36.375 30.968-5.251 1.676-10.25 2.566-14.86 2.656-.318.006-.635.008-.95.006-4.048-.019-7.755-.666-11.002-1.946-.77-.304-1.579-.097-1.452-1.047.035-.266.199-1.032.311-1.243.216-.405.55-.76.834-1.177 1.17-1.713 3.459-2.971 5.366-4.532 6.091-4.987 11.872-10.58 16.825-16.708 2.215-2.738 4.287-5.626 6.214-8.572 1.642-2.524 3.237-4.824 4.938-7.276z" id="path238"/><path class="st53" d="M155.022 287.056c2.604-3.835 4.111-8.414 7.332-11.675a15.618 15.618 0 0 1 5.97-3.79c1.605-.558 3.241-.85 4.896-.824 2.027.024 3.7.32 4.707.874 10.085 5.538 11.468 14.346 6.997 23.795-6.394 13.512-23.652 26.643-35.97 30.574-5.19 1.656-10.128 2.538-14.683 2.628-.314.007-.628.01-.94.008-4.009-.016-7.67-.655-10.87-1.917-.758-.299-1.576-.074-1.402-1.027.047-.257.242-1.027.366-1.226.245-.394.59-.739.894-1.14 1.237-1.642 3.43-2.904 5.292-4.43 5.962-4.885 11.609-10.35 16.476-16.334a104.155 104.155 0 0 0 6.12-8.372c1.614-2.458 3.178-4.732 4.815-7.144z" id="path240"/><path class="st54" d="M154.905 287.591c2.569-3.871 4.055-8.499 7.264-11.81 1.64-1.7 3.697-3.05 5.968-3.855 1.601-.568 3.245-.868 4.91-.847 2.043.02 3.725.315 4.721.867 10.022 5.554 11.225 14.278 6.788 23.534-6.392 13.335-23.548 26.345-35.563 30.18-5.13 1.637-10.008 2.51-14.507 2.602-.31.007-.62.01-.928.008-3.971-.013-7.586-.643-10.741-1.887-.745-.294-1.574-.052-1.35-1.007.058-.249.284-1.02.42-1.21.275-.38.631-.716.953-1.103 1.305-1.571 3.403-2.837 5.22-4.326 5.832-4.785 11.345-10.121 16.127-15.961a103.042 103.042 0 0 0 6.026-8.172c1.586-2.392 3.117-4.64 4.692-7.013z" id="path242"/><path class="st55" d="M154.787 288.127c2.532-3.909 4-8.585 7.197-11.947a15.577 15.577 0 0 1 5.965-3.92c1.598-.577 3.25-.885 4.923-.868 2.06.016 3.752.311 4.737.86 9.949 5.588 10.981 14.21 6.58 23.272-6.39 13.157-23.444 26.048-35.158 29.787-5.068 1.617-9.886 2.48-14.33 2.575-.307.007-.613.01-.917.009-3.933-.011-7.501-.632-10.611-1.859-.733-.289-1.573-.032-1.3-.985.07-.242.329-1.014.477-1.194.304-.367.671-.695 1.011-1.067 1.373-1.501 3.376-2.77 5.146-4.222 5.704-4.684 11.083-9.893 15.78-15.589a101.96 101.96 0 0 0 5.932-7.971c1.557-2.325 3.056-4.548 4.568-6.881z" id="path244"/><path class="st56" d="M154.67 288.662c2.493-3.946 3.944-8.67 7.129-12.083a15.62 15.62 0 0 1 5.963-3.983c1.594-.585 3.254-.904 4.936-.892 2.077.013 3.78.306 4.752.853 9.889 5.599 10.738 14.142 6.37 23.012-6.388 12.977-23.339 25.75-34.75 29.392-5.008 1.597-9.766 2.453-14.154 2.549a37.4 37.4 0 0 1-.906.009c-3.895-.008-7.417-.62-10.48-1.83-.72-.283-1.575-.014-1.249-.964.081-.235.37-1.006.532-1.177.333-.353.71-.674 1.07-1.03 1.44-1.433 3.348-2.702 5.072-4.12 5.575-4.582 10.82-9.663 15.43-15.215a100.9 100.9 0 0 0 5.839-7.771 253.062 253.062 0 0 0 4.445-6.75z" id="path246"/><path class="st57" d="M154.551 289.198c2.454-3.985 3.89-8.755 7.063-12.22a15.593 15.593 0 0 1 5.96-4.047c1.59-.595 3.258-.923 4.95-.914 2.094.008 3.807.3 4.767.845 9.828 5.61 10.481 14.067 6.162 22.75-6.406 12.79-23.236 25.453-34.346 29-4.945 1.577-9.643 2.424-13.976 2.522-.3.007-.598.01-.895.01-3.857-.006-7.332-.609-10.35-1.8-.708-.28-1.577 0-1.197-.945.092-.23.412-.998.586-1.16.362-.338.752-.653 1.129-.994 1.509-1.364 3.32-2.635 5-4.016 5.444-4.48 10.556-9.434 15.081-14.842a99.865 99.865 0 0 0 5.744-7.572 161.572 161.572 0 0 0 4.322-6.617z" id="path248"/><path class="st58" d="M154.434 289.733c2.411-4.024 3.835-8.84 6.995-12.355a15.569 15.569 0 0 1 5.958-4.112c1.586-.606 3.262-.94 4.963-.936 2.11.004 3.834.294 4.782.838 9.768 5.621 10.243 14 5.954 22.49-6.398 12.614-23.132 25.154-33.94 28.604-4.885 1.558-9.523 2.396-13.8 2.496-.296.007-.59.01-.884.01-3.819-.003-7.248-.597-10.22-1.771-.695-.274-1.58.013-1.146-.924.104-.224.454-.99.642-1.144.39-.32.792-.631 1.187-.956 1.578-1.298 3.294-2.568 4.927-3.913 5.315-4.38 10.293-9.205 14.733-14.47a98.886 98.886 0 0 0 5.65-7.37 116.252 116.252 0 0 0 4.199-6.487z" id="path250"/><path class="st59" d="M124.598 324.65c2.927 1.157 6.31 1.742 10.09 1.742 4.461 0 9.338-.834 14.496-2.48 17.51-5.589 52.057-36.359 27.79-50.439-.936-.543-2.67-.83-4.799-.83-4.171 0-8.194 2.035-10.931 5.135-3.148 3.565-4.561 8.426-6.928 12.49-2.79 4.79-6.042 9.305-9.632 13.526-6.021 7.08-12.978 13.353-20.484 18.826-.201.147-.58.907-.697 1.128-.486.926.413.633 1.095.903z" id="path252"/><path class="st60" d="M101.796 331.48c17.273-12.191 39.416-32.21 51.728-59.771 7.682-16.45 22.024-16.993 29.735-14.11 7.718 2.896 18.423 10.985 12.171 30.84-6.07 19.3-25.384 37.89-52.927 46.682-25.552 8.152-38.663.547-40.893-.65-2.146-1.135-1.115-2.047.186-2.99" id="path254"/></svg>